<?xml version="1.0" encoding="UTF-8" standalone="no"?>
<!DOCTYPE svg PUBLIC "-//W3C//DTD SVG 1.1//EN" "http://www.w3.org/Graphics/SVG/1.1/DTD/svg11.dtd">
<svg xmlns="http://www.w3.org/2000/svg" version="1.1" viewBox="0.00 0.00 1024.00 1024.00">
<g stroke-width="2.00" fill="none" stroke-linecap="butt">
<path stroke="#4c7298" vector-effect="non-scaling-stroke" d="
  M 483.22 146.36
  Q 484.53 153.39 490.08 159.92
  Q 496.48 167.45 506.06 169.18
  A 0.70 0.69 89.9 0 1 506.63 169.76
  Q 506.91 171.35 506.91 172.75
  Q 506.89 307.71 506.97 333.50
  Q 507.01 343.69 506.62 350.99
  A 0.38 0.37 -21.2 0 0 507.26 351.27
  L 510.35 348.17
  A 0.96 0.96 0.0 0 1 511.71 348.17
  L 514.99 351.49
  A 0.22 0.22 0.0 0 0 515.36 351.34
  L 515.36 169.83
  A 0.42 0.42 0.0 0 1 515.69 169.42
  Q 534.83 165.41 539.16 146.36"
/>
<path stroke="#2f4764" vector-effect="non-scaling-stroke" d="
  M 539.16 146.36
  Q 576.35 183.15 613.27 219.98
  Q 624.31 230.99 635.26 242.15
  C 652.76 259.97 668.31 275.19 685.29 292.44
  C 688.55 295.76 693.14 299.36 696.25 302.36
  A 0.59 0.59 0.0 0 0 697.18 302.22
  Q 700.88 295.40 706.13 289.12
  A 0.83 0.83 0.0 0 0 706.08 288.00
  L 564.14 146.71
  A 0.71 0.70 45.6 0 1 564.14 145.71
  L 573.99 135.95
  A 0.51 0.51 0.0 0 0 573.99 135.23
  L 512.19 73.72
  A 0.69 0.68 -44.7 0 0 511.22 73.72
  L 449.45 134.94
  A 1.15 1.14 -44.8 0 0 449.44 136.56
  L 457.77 144.97
  A 1.09 1.08 45.2 0 1 457.77 146.50
  Q 383.66 220.49 383.01 221.17
  Q 373.37 231.15 351.56 252.39
  Q 325.36 277.91 319.99 283.50
  Q 318.61 284.94 316.76 287.19
  A 0.79 0.79 0.0 0 0 316.69 288.10
  L 324.96 301.84
  A 1.38 1.38 0.0 0 0 327.11 302.10
  L 483.22 146.36"
/>
<path stroke="#5f8eb6" vector-effect="non-scaling-stroke" d="
  M 539.16 146.36
  Q 542.29 127.97 529.77 116.99
  C 524.18 112.09 516.35 109.03 508.82 109.70
  Q 493.29 111.09 485.63 124.58
  C 483.48 128.37 482.86 132.52 482.72 136.99
  Q 482.56 142.13 483.22 146.36"
/>
<path stroke="#4c7298" vector-effect="non-scaling-stroke" d="
  M 535.62 370.23
  Q 535.81 368.83 535.79 366.75
  Q 535.74 360.19 535.70 319.27
  Q 535.70 316.55 536.78 315.50
  Q 546.28 306.37 550.82 301.80
  Q 552.58 300.03 552.54 297.00
  Q 552.14 261.82 552.73 228.63
  A 3.07 3.04 -27.6 0 1 553.27 226.93
  C 554.16 225.64 555.21 224.79 555.68 223.15
  C 558.86 212.05 542.60 207.35 540.16 217.63
  C 539.31 221.25 540.15 223.91 542.52 226.60
  Q 543.80 228.06 543.82 228.99
  Q 544.22 262.30 544.11 293.03
  Q 544.10 295.62 541.87 297.85
  Q 538.53 301.21 528.71 310.62
  A 4.41 4.39 -21.7 0 0 527.36 313.74
  Q 527.29 318.70 527.15 360.50
  C 527.14 363.53 532.35 367.77 535.08 370.41
  A 0.32 0.32 0.0 0 0 535.62 370.23"
/>
<path stroke="#4c7298" vector-effect="non-scaling-stroke" d="
  M 486.99 371.64
  L 493.19 365.38
  A 4.87 4.85 67.3 0 0 494.60 361.93
  Q 494.50 324.65 494.59 315.87
  C 494.61 313.76 494.26 312.61 492.91 311.08
  Q 492.79 310.95 480.62 298.62
  Q 479.04 297.02 479.04 295.24
  Q 479.11 272.27 479.08 232.68
  A 3.82 3.81 65.7 0 1 480.03 230.16
  C 481.71 228.24 483.04 227.06 483.72 225.14
  C 485.52 220.02 481.30 214.46 476.33 213.32
  C 471.70 212.26 466.98 216.35 466.09 220.74
  Q 464.99 226.12 470.00 229.91
  A 1.58 1.57 -71.7 0 1 470.63 231.17
  Q 470.77 258.52 470.37 296.75
  Q 470.33 300.51 472.86 303.11
  Q 477.90 308.31 484.14 314.33
  C 485.49 315.62 486.16 317.06 486.14 318.75
  Q 486.02 333.42 485.82 371.16
  A 0.68 0.68 0.0 0 0 486.99 371.64"
/>
<path stroke="#4c7298" vector-effect="non-scaling-stroke" d="
  M 458.14 400.42
  L 464.66 393.84
  A 4.45 4.41 67.4 0 0 465.93 390.73
  Q 465.86 369.18 465.80 348.00
  C 465.79 344.35 465.65 342.95 463.13 340.46
  Q 453.81 331.23 441.99 318.89
  A 4.20 4.16 -66.9 0 1 440.83 315.97
  Q 440.93 292.90 440.66 258.99
  Q 440.65 257.41 442.34 253.69
  C 445.09 247.62 438.15 241.47 432.42 245.09
  Q 427.98 247.89 429.56 253.42
  C 430.08 255.28 431.86 256.58 432.41 258.28
  A 1.39 1.29 -57.0 0 1 432.49 258.74
  L 432.49 320.40
  A 3.46 3.45 22.2 0 0 433.54 322.88
  L 456.21 344.97
  A 0.29 0.24 -85.3 0 1 456.26 345.04
  Q 457.08 346.35 457.08 348.25
  Q 457.09 384.89 456.97 399.93
  A 0.69 0.68 -22.2 0 0 458.14 400.42"
/>
<path stroke="#4c7298" vector-effect="non-scaling-stroke" d="
  M 564.63 400.31
  A 0.49 0.49 0.0 0 0 565.47 399.96
  Q 564.80 358.79 564.81 355.25
  C 564.82 352.35 564.32 347.73 566.73 345.24
  Q 581.76 329.73 588.49 322.75
  Q 590.54 320.62 590.54 319.25
  Q 590.57 286.49 590.50 278.50
  Q 590.49 275.94 591.57 274.99
  C 596.55 270.62 595.25 265.17 589.85 262.00
  C 584.15 258.65 577.91 265.23 579.20 270.94
  C 579.69 273.13 581.47 274.49 582.27 276.30
  A 4.43 4.31 33.9 0 1 582.62 277.96
  Q 582.66 288.63 582.39 299.00
  Q 582.38 299.42 582.35 314.51
  Q 582.35 317.10 580.94 318.69
  Q 576.14 324.05 558.68 341.45
  Q 556.97 343.16 556.97 345.99
  Q 556.98 368.72 557.07 391.60
  A 3.00 2.98 22.3 0 0 557.96 393.70
  L 564.63 400.31"
/>
<path stroke="#4c7298" vector-effect="non-scaling-stroke" d="
  M 428.68 429.05
  L 435.87 421.80
  A 2.88 2.87 -22.7 0 0 436.70 419.78
  Q 436.82 378.72 437.03 369.01
  Q 437.08 366.68 436.05 365.68
  Q 432.27 361.98 406.25 335.91
  C 404.54 334.20 403.85 332.73 403.89 330.49
  Q 404.22 312.37 404.03 303.50
  Q 403.83 293.64 404.06 285.68
  A 2.19 2.18 -18.9 0 1 404.88 284.02
  Q 408.54 281.10 408.26 276.46
  C 408.07 273.37 405.41 270.07 402.43 269.23
  Q 398.72 268.17 395.30 270.12
  Q 389.85 273.24 392.10 280.71
  A 2.17 2.09 -74.8 0 0 392.51 281.46
  L 394.93 284.36
  A 2.79 2.78 24.9 0 1 395.59 286.16
  Q 395.56 317.35 395.54 335.48
  Q 395.54 337.31 397.12 338.87
  Q 415.93 357.39 427.33 368.88
  A 3.36 3.34 -67.6 0 1 428.31 371.25
  L 428.31 428.89
  A 0.22 0.21 67.6 0 0 428.68 429.05"
/>
<path stroke="#4c7298" vector-effect="non-scaling-stroke" d="
  M 608.43 442.74
  L 614.09 448.37
  A 0.27 0.27 0.0 0 0 614.47 448.37
  L 645.09 417.60
  A 3.62 3.59 -67.3 0 1 647.64 416.54
  L 659.70 416.54
  A 3.02 3.00 22.4 0 0 661.83 415.66
  L 723.39 354.65
  A 1.06 1.05 -51.4 0 1 724.68 354.50
  C 727.29 356.12 730.54 358.15 733.80 359.21
  Q 748.88 364.10 762.06 358.10
  C 778.26 350.73 787.61 332.19 783.83 315.30
  Q 780.87 302.04 769.69 293.07
  C 760.46 285.68 746.25 283.12 734.91 286.97
  C 713.95 294.09 703.46 314.90 710.30 336.19
  C 711.72 340.60 714.75 344.76 717.29 348.00
  A 0.90 0.90 0.0 0 1 717.30 349.10
  C 712.95 354.76 705.39 361.14 701.89 364.64
  Q 680.94 385.63 659.23 406.73
  Q 657.68 408.24 655.98 408.24
  Q 647.86 408.25 643.85 408.38
  A 3.97 3.97 0.0 0 0 641.17 409.54
  L 608.43 442.43
  A 0.23 0.22 -46.0 0 0 608.43 442.74"
/>
<path stroke="#4c7298" vector-effect="non-scaling-stroke" d="
  M 407.46 441.65
  A 0.57 0.57 0.0 0 1 406.48 442.05
  Q 403.58 439.11 377.96 413.65
  C 376.73 412.43 375.59 410.97 373.94 410.80
  C 370.19 410.42 367.95 411.34 364.99 408.50
  Q 361.20 404.86 358.44 402.07
  Q 334.39 377.77 305.70 349.12
  A 0.75 0.75 0.0 0 1 305.67 348.09
  C 313.61 338.97 316.57 325.54 313.56 314.53
  C 310.09 301.80 300.57 291.81 287.86 287.63
  C 270.82 282.03 251.96 289.26 243.42 304.61
  C 234.72 320.25 237.45 338.21 250.17 350.87
  Q 264.81 365.44 286.01 360.94
  Q 292.84 359.48 298.31 355.34
  A 0.76 0.74 46.9 0 1 299.27 355.38
  C 304.44 360.01 309.22 364.21 313.89 369.03
  Q 337.68 393.58 360.30 415.87
  C 361.65 417.21 362.61 418.27 364.55 418.45
  C 368.64 418.81 370.34 418.09 373.39 421.12
  Q 386.22 433.86 404.73 452.83
  A 0.30 0.29 -44.3 0 0 405.14 452.83
  L 415.09 442.97
  A 3.14 3.13 67.7 0 0 416.02 440.74
  L 416.02 400.45
  A 2.90 2.90 0.0 0 0 414.96 398.21
  Q 410.95 394.92 409.54 393.47
  Q 391.94 375.52 370.94 355.00
  A 1.64 1.64 0.0 0 1 370.60 353.16
  C 373.60 346.60 368.76 339.31 361.59 338.75
  C 352.70 338.05 347.20 348.60 353.03 355.22
  Q 356.59 359.26 361.65 358.88
  A 3.59 3.57 65.3 0 1 364.47 359.93
  L 406.62 402.46
  A 2.87 2.87 0.0 0 1 407.46 404.49
  L 407.46 441.65"
/>
<path stroke="#4c7298" vector-effect="non-scaling-stroke" d="
  M 596.22 417.93
  L 596.22 387.91
  A 3.28 3.26 -22.7 0 1 597.18 385.60
  Q 622.70 360.15 628.73 354.11
  C 630.44 352.40 630.99 351.09 630.97 348.75
  Q 630.87 328.05 631.46 310.97
  A 2.66 2.61 -20.8 0 1 632.32 309.10
  C 635.93 305.78 638.21 302.39 636.31 297.27
  Q 634.41 292.16 628.99 291.17
  C 619.57 289.44 614.19 298.66 618.56 306.46
  A 4.28 4.26 1.3 0 0 620.04 308.00
  L 621.94 309.19
  A 2.26 2.25 -73.4 0 1 623.00 311.16
  Q 622.52 330.22 622.63 345.39
  C 622.65 348.16 622.00 349.30 620.15 351.14
  Q 601.15 369.98 588.30 382.50
  A 2.59 2.58 -22.4 0 0 587.53 384.34
  L 587.53 421.20
  A 1.89 1.87 -67.9 0 0 588.09 422.54
  L 595.69 430.11
  A 0.85 0.85 0.0 0 0 596.89 430.11
  L 664.01 363.03
  A 1.50 0.57 -27.2 0 1 664.14 362.91
  Q 665.19 362.16 668.61 361.40
  C 677.48 359.42 675.34 347.40 666.64 347.68
  Q 661.55 347.85 660.34 352.60
  C 659.65 355.29 658.69 356.82 657.36 358.11
  Q 635.79 379.08 599.49 415.74
  Q 597.29 417.96 596.92 418.26
  A 0.43 0.43 0.0 0 1 596.22 417.93"
/>
<path stroke="#2f4764" vector-effect="non-scaling-stroke" d="
  M 256.25 689.52
  A 0.14 0.14 0.0 0 0 256.28 689.30
  L 99.40 531.02
  A 0.44 0.43 -44.5 0 1 99.41 530.40
  Q 175.90 454.95 183.36 447.61
  Q 212.24 419.19 239.06 390.81
  Q 247.23 382.17 254.58 373.03
  A 0.56 0.55 -56.5 0 0 254.42 372.20
  Q 248.03 368.73 241.40 363.27
  A 1.29 1.29 0.0 0 0 239.55 363.49
  Q 237.47 366.26 234.25 369.50
  Q 205.93 397.98 170.31 432.81
  C 160.76 442.16 149.07 454.54 141.02 462.52
  Q 86.77 516.35 81.52 521.52
  Q 77.35 525.62 73.23 530.07
  A 0.79 0.79 0.0 0 0 73.26 531.16
  Q 134.22 591.48 197.68 655.31
  Q 220.12 677.88 238.65 697.36
  A 1.79 1.78 53.9 0 0 240.78 697.70
  L 256.25 689.52"
/>
<path stroke="#2f4764" vector-effect="non-scaling-stroke" d="
  M 766.83 373.58
  Q 767.41 374.34 770.82 377.81
  Q 779.00 386.17 804.67 411.54
  Q 815.11 421.85 834.94 442.08
  Q 874.88 482.82 923.52 529.91
  A 0.99 0.99 0.0 0 1 923.53 531.32
  L 766.59 688.98
  A 0.64 0.64 0.0 0 0 766.70 689.98
  L 779.87 698.18
  A 1.01 1.00 -51.1 0 0 781.11 698.04
  L 949.47 531.17
  A 0.57 0.55 45.0 0 0 949.46 530.38
  Q 919.88 501.22 881.71 464.18
  C 870.59 453.39 860.15 442.20 850.63 432.88
  Q 840.51 422.99 826.67 408.81
  Q 812.31 394.12 788.88 371.33
  C 786.59 369.11 783.87 365.96 781.84 364.04
  A 0.43 0.41 -38.5 0 0 781.33 363.99
  L 767.02 372.60
  A 0.67 0.67 0.0 0 0 766.83 373.58"
/>
<path stroke="#2f4764" vector-effect="non-scaling-stroke" d="
  M 352.26 530.78
  A 0.66 0.66 0.0 0 0 352.26 531.72
  L 511.19 689.12
  A 0.66 0.66 0.0 0 0 512.11 689.12
  L 671.33 531.33
  A 0.66 0.66 0.0 0 0 671.33 530.39
  L 511.73 371.52
  A 0.66 0.66 0.0 0 0 510.79 371.52
  L 352.26 530.78"
/>
<path stroke="#4c7298" vector-effect="non-scaling-stroke" d="
  M 624.08 458.63
  L 628.92 463.42
  A 5.79 5.77 67.3 0 0 632.98 465.09
  L 676.95 465.09
  A 3.44 3.41 20.3 0 0 679.54 463.91
  Q 685.47 457.10 692.76 449.97
  C 702.19 440.74 713.24 429.36 720.42 421.92
  Q 723.01 419.23 724.63 419.13
  Q 729.38 418.80 730.42 418.43
  C 741.87 414.31 738.42 397.38 725.67 399.09
  Q 720.09 399.84 717.80 405.88
  C 716.31 409.81 719.65 411.88 715.76 415.52
  Q 695.62 434.35 675.37 455.88
  A 2.19 2.19 0.0 0 1 674.67 456.38
  Q 673.42 456.96 671.28 456.95
  Q 658.26 456.91 624.78 456.93
  A 0.99 0.99 0.0 0 0 624.08 458.63"
/>
<path stroke="#4c7298" vector-effect="non-scaling-stroke" d="
  M 390.05 466.96
  L 367.73 466.96
  A 0.72 0.70 66.8 0 1 367.23 466.75
  L 330.96 430.15
  A 3.89 3.89 0.0 0 0 328.21 429.01
  L 295.48 429.01
  A 3.12 3.12 0.0 0 1 292.92 427.67
  C 290.38 424.06 286.75 422.15 282.37 423.59
  C 270.97 427.33 275.76 444.27 288.73 440.24
  C 290.42 439.71 292.18 437.47 294.76 437.45
  Q 301.70 437.39 323.28 437.37
  Q 326.86 437.37 329.30 439.94
  Q 336.10 447.12 360.82 472.07
  C 361.82 473.07 363.46 475.02 364.78 475.07
  Q 373.04 475.32 381.44 475.16
  A 4.15 4.14 21.9 0 0 384.26 473.96
  L 390.42 467.86
  A 0.53 0.53 0.0 0 0 390.05 466.96"
/>
<path stroke="#4c7298" vector-effect="non-scaling-stroke" d="
  M 649.50 484.23
  L 655.60 490.39
  A 4.36 4.36 0.0 0 0 658.73 491.69
  Q 680.96 491.64 701.68 491.40
  Q 704.43 491.36 705.54 490.29
  Q 716.54 479.72 743.92 451.76
  C 745.47 450.18 746.49 449.77 748.51 449.71
  Q 755.67 449.49 762.20 449.78
  A 3.28 3.17 58.5 0 1 763.48 450.11
  Q 763.98 450.36 765.79 451.49
  C 773.97 456.58 780.83 445.69 774.08 439.97
  C 769.89 436.43 766.63 438.97 763.25 441.72
  A 1.51 1.51 0.0 0 1 762.24 442.06
  Q 751.40 441.72 744.50 441.61
  Q 741.61 441.56 740.12 443.12
  Q 713.83 470.61 702.10 482.20
  A 2.57 2.49 15.6 0 1 700.85 482.88
  Q 698.04 483.50 693.75 483.50
  Q 650.44 483.46 649.90 483.40
  A 0.49 0.49 0.0 0 0 649.50 484.23"
/>
<path stroke="#4c7298" vector-effect="non-scaling-stroke" d="
  M 361.33 497.02
  Q 348.52 497.00 334.50 496.90
  Q 331.84 496.88 330.32 495.42
  Q 321.99 487.44 315.19 480.53
  A 4.87 4.86 67.8 0 0 311.75 479.08
  Q 293.29 478.99 271.17 479.15
  C 268.18 479.17 267.20 478.74 265.29 476.82
  Q 254.47 465.99 245.03 456.09
  A 2.90 2.90 0.0 0 1 244.24 454.26
  Q 243.90 448.46 239.40 446.28
  C 229.91 441.69 223.31 455.74 231.61 460.62
  Q 233.83 461.93 237.79 461.55
  A 3.15 3.14 66.5 0 1 240.44 462.60
  Q 250.98 474.57 264.06 486.85
  A 2.58 2.56 -22.9 0 0 265.80 487.55
  Q 287.38 487.89 308.50 487.68
  Q 310.78 487.66 312.06 488.94
  Q 321.88 498.77 327.68 504.32
  Q 329.07 505.65 331.27 505.61
  Q 337.70 505.49 352.69 505.58
  A 0.39 0.37 20.1 0 0 352.97 505.46
  L 361.35 497.05
  A 0.02 0.02 0.0 0 0 361.33 497.02"
/>
<path stroke="#4c7298" vector-effect="non-scaling-stroke" d="
  M 677.06 511.01
  L 682.88 516.77
  A 4.57 4.54 -22.5 0 0 686.09 518.09
  L 747.31 518.09
  A 4.93 4.93 0.0 0 0 750.72 516.72
  Q 763.47 504.47 773.93 493.92
  C 776.00 491.83 777.03 491.79 779.75 491.80
  Q 784.42 491.81 799.25 491.80
  A 2.29 2.27 72.9 0 1 801.14 492.81
  Q 805.30 498.98 811.79 498.13
  C 821.19 496.90 823.60 483.86 814.77 479.68
  Q 808.17 476.56 802.93 481.93
  C 801.32 483.58 800.79 483.82 798.50 483.80
  Q 789.20 483.70 780.00 483.45
  C 777.80 483.40 772.34 483.37 770.27 485.52
  Q 760.02 496.11 746.76 508.73
  A 2.51 2.29 -76.3 0 1 746.12 509.16
  Q 744.18 510.04 741.75 510.02
  Q 713.64 509.85 677.52 509.89
  A 0.65 0.65 0.0 0 0 677.06 511.01"
/>
<path stroke="#4c7298" vector-effect="non-scaling-stroke" d="
  M 169.01 530.62
  Q 169.00 535.19 171.75 537.99
  Q 178.35 544.72 186.85 539.37
  C 188.01 538.64 189.34 536.78 190.15 535.69
  A 2.10 2.08 -71.6 0 1 191.83 534.84
  L 330.90 534.84
  A 0.28 0.28 0.0 0 0 331.10 534.36
  Q 329.64 532.96 328.10 531.38
  Q 327.92 531.20 327.92 530.85
  Q 327.92 530.49 328.10 530.31
  Q 329.65 528.74 331.11 527.34
  A 0.28 0.28 0.0 0 0 330.91 526.86
  L 191.84 526.46
  A 2.10 2.08 71.7 0 1 190.16 525.61
  C 189.36 524.52 188.03 522.65 186.87 521.92
  Q 178.39 516.55 171.77 523.26
  Q 169.01 526.05 169.01 530.62"
/>
<path stroke="#4c7298" vector-effect="non-scaling-stroke" d="
  M 697.30 530.89
  Q 697.30 531.34 697.17 531.47
  Q 695.85 532.85 694.45 534.28
  A 0.41 0.41 0.0 0 0 694.75 534.98
  Q 718.16 535.01 857.72 534.89
  C 860.33 534.89 861.87 533.48 861.87 530.83
  C 861.87 528.19 860.33 526.78 857.72 526.78
  Q 718.16 526.75 694.75 526.80
  A 0.41 0.41 0.0 0 0 694.45 527.50
  Q 695.85 528.93 697.17 530.31
  Q 697.30 530.44 697.30 530.89"
/>
<path stroke="#4c7298" vector-effect="non-scaling-stroke" d="
  M 672.26 555.40
  L 746.37 555.40
  A 3.58 3.57 67.6 0 1 748.91 556.46
  Q 759.45 567.15 770.75 577.76
  Q 772.27 579.18 774.26 579.20
  Q 785.73 579.29 798.27 579.13
  A 2.24 2.24 0.0 0 1 800.16 580.11
  C 805.56 588.04 817.77 587.12 820.58 577.58
  Q 822.31 571.69 817.58 567.32
  Q 810.90 561.14 803.25 565.94
  C 801.85 566.81 800.73 568.56 799.86 569.93
  A 1.32 1.30 -74.5 0 1 798.82 570.53
  Q 788.13 571.00 778.51 570.86
  C 776.56 570.83 775.25 570.36 773.93 569.08
  Q 758.75 554.32 752.49 548.26
  Q 751.35 547.16 749.26 547.17
  Q 730.16 547.26 680.09 547.07
  A 0.54 0.53 -68.0 0 0 679.70 547.24
  L 672.17 555.21
  A 0.12 0.11 20.9 0 0 672.26 555.40"
/>
<path stroke="#4c7298" vector-effect="non-scaling-stroke" d="
  M 354.89 559.45
  L 346.60 551.48
  A 0.76 0.75 66.4 0 0 346.08 551.27
  L 252.45 551.00
  A 1.91 1.74 33.8 0 0 251.91 551.08
  Q 249.97 551.71 248.10 553.59
  Q 236.52 565.22 224.03 577.80
  C 221.84 580.01 218.77 579.85 217.02 581.11
  Q 213.84 583.41 214.44 587.83
  C 215.23 593.61 222.61 595.52 226.39 591.31
  C 228.08 589.42 227.86 585.34 229.76 583.51
  Q 240.50 573.17 252.20 561.18
  Q 253.94 559.40 257.74 559.41
  Q 306.93 559.57 354.86 559.52
  A 0.04 0.04 0.0 0 0 354.89 559.45"
/>
<path stroke="#4c7298" vector-effect="non-scaling-stroke" d="
  M 647.98 581.05
  Q 686.56 581.36 702.99 580.83
  Q 705.66 580.74 706.46 581.55
  Q 730.43 605.46 746.10 620.88
  A 3.55 3.52 -22.4 0 0 748.59 621.90
  Q 755.43 621.89 761.50 622.09
  C 763.84 622.17 764.76 622.35 766.62 623.80
  C 775.23 630.50 783.65 619.56 777.31 612.51
  C 774.24 609.11 769.58 609.51 766.06 612.58
  C 763.77 614.57 756.94 614.03 753.66 613.93
  C 750.77 613.85 750.06 613.15 747.81 610.94
  Q 726.01 589.51 710.95 573.94
  A 3.46 3.42 -21.7 0 0 708.47 572.89
  L 655.91 572.89
  A 3.87 3.84 22.1 0 0 653.16 574.04
  L 647.46 579.79
  A 0.74 0.74 0.0 0 0 647.98 581.05"
/>
<path stroke="#4c7298" vector-effect="non-scaling-stroke" d="
  M 383.39 588.39
  A 0.47 0.47 0.0 0 0 383.73 587.58
  L 376.93 580.82
  A 3.04 3.04 0.0 0 0 374.78 579.93
  L 292.98 579.93
  A 1.77 1.74 22.2 0 0 291.74 580.44
  L 265.21 607.10
  A 2.02 2.02 0.0 0 1 263.25 607.62
  Q 254.10 605.14 250.67 613.68
  C 247.79 620.85 255.28 627.93 262.32 626.34
  C 267.32 625.21 270.43 621.54 270.28 616.49
  Q 270.20 613.82 270.21 613.69
  A 1.39 1.35 70.1 0 1 270.62 612.78
  L 294.89 589.27
  A 2.91 2.87 -74.7 0 1 296.13 588.55
  Q 297.80 588.08 302.00 588.07
  Q 339.80 588.02 383.39 588.39"
/>
<path stroke="#4c7298" vector-effect="non-scaling-stroke" d="
  M 390.27 595.25
  L 374.43 611.25
  A 3.25 3.23 22.5 0 1 372.10 612.21
  Q 362.24 612.14 347.38 612.13
  Q 344.70 612.13 343.42 613.46
  Q 327.54 629.93 309.97 647.56
  A 5.32 5.09 6.1 0 1 308.92 648.37
  Q 307.60 649.14 306.14 649.66
  C 296.61 653.00 301.75 666.70 311.20 662.63
  Q 314.89 661.04 314.52 655.73
  A 2.38 2.38 0.0 0 1 315.20 653.88
  Q 322.56 646.34 333.59 635.84
  Q 336.72 632.87 346.12 622.52
  C 347.37 621.15 348.53 620.69 350.26 620.72
  Q 368.73 621.04 375.17 620.57
  A 6.30 6.25 20.4 0 0 379.12 618.78
  L 396.45 601.60
  A 0.97 0.96 -44.8 0 0 396.46 600.24
  L 391.51 595.25
  A 0.87 0.87 0.0 0 0 390.27 595.25"
/>
<path stroke="#4c7298" vector-effect="non-scaling-stroke" d="
  M 625.76 601.12
  A 0.71 0.71 0.0 0 0 625.76 602.12
  L 644.17 620.35
  A 2.71 2.70 -23.1 0 0 646.12 621.13
  Q 658.22 620.96 675.28 621.08
  C 677.23 621.09 678.98 621.58 680.20 622.88
  Q 692.90 636.36 703.37 646.31
  A 3.23 3.21 14.1 0 1 704.27 647.80
  C 704.78 649.59 704.39 651.56 705.31 653.61
  C 708.33 660.40 716.82 662.02 721.40 656.34
  C 724.00 653.12 723.95 647.31 720.83 644.20
  C 718.07 641.46 715.12 640.90 711.10 641.00
  A 2.77 2.75 66.6 0 1 709.08 640.19
  L 682.79 614.03
  A 3.45 3.45 0.0 0 0 680.35 613.02
  L 649.69 613.02
  A 1.62 1.60 -22.3 0 1 648.55 612.55
  L 631.88 596.04
  A 0.75 0.75 0.0 0 0 630.82 596.04
  L 625.76 601.12"
/>
<path stroke="#4c7298" vector-effect="non-scaling-stroke" d="
  M 408.06 626.69
  Q 407.96 634.38 408.05 665.74
  Q 408.06 668.42 406.84 669.62
  Q 387.04 689.13 366.70 709.46
  Q 364.86 711.31 364.79 713.83
  Q 364.54 722.42 364.70 733.97
  A 4.56 4.56 0.0 0 1 363.91 736.60
  C 363.05 737.87 361.55 739.42 361.05 741.12
  C 358.78 748.71 367.14 754.34 373.72 750.59
  Q 379.04 747.56 376.86 740.42
  A 0.51 0.43 -77.3 0 0 376.76 740.23
  L 373.94 736.42
  A 3.75 3.73 25.6 0 1 373.21 734.36
  Q 372.78 724.62 373.21 717.00
  Q 373.30 715.37 374.94 713.69
  Q 395.40 692.75 414.82 673.41
  A 5.58 5.56 67.6 0 0 416.45 669.47
  L 416.45 621.08
  A 2.97 2.97 0.0 0 0 415.58 618.98
  L 409.75 613.21
  A 0.56 0.56 0.0 0 0 408.97 613.21
  L 364.43 657.36
  A 3.80 3.76 22.4 0 1 361.77 658.45
  L 357.53 658.45
  A 2.59 2.56 22.5 0 0 355.72 659.19
  L 305.38 709.09
  A 1.11 1.11 0.0 0 1 303.86 709.13
  C 286.15 693.32 259.66 696.43 246.64 715.99
  C 236.22 731.64 239.08 753.09 253.88 765.18
  Q 259.54 769.80 264.41 771.57
  Q 284.95 779.03 302.03 765.45
  Q 309.95 759.14 313.58 749.32
  C 317.80 737.92 316.09 727.52 310.61 716.84
  A 0.85 0.84 54.1 0 1 310.76 715.86
  L 359.05 668.00
  A 4.68 4.68 0.0 0 1 362.35 666.64
  L 365.66 666.64
  A 4.76 4.74 22.3 0 0 369.03 665.24
  L 407.46 626.44
  A 0.35 0.35 0.0 0 1 408.06 626.69"
/>
<path stroke="#4c7298" vector-effect="non-scaling-stroke" d="
  M 604.90 621.74
  A 1.16 1.16 0.0 0 0 604.90 623.38
  L 644.49 662.79
  A 4.01 3.98 67.2 0 0 647.30 663.95
  L 656.44 663.95
  A 5.22 5.19 -22.5 0 1 660.11 665.46
  L 710.87 715.99
  A 0.72 0.71 -53.6 0 1 710.99 716.83
  C 704.23 729.19 704.28 745.33 712.14 756.92
  C 721.03 770.01 735.89 776.26 751.47 773.37
  C 779.74 768.14 791.01 732.23 771.73 711.53
  Q 763.76 702.97 752.55 700.22
  Q 732.72 695.34 717.65 708.36
  A 1.66 1.66 0.0 0 1 715.38 708.27
  Q 703.37 696.13 664.14 657.42
  C 661.84 655.15 654.55 655.82 651.53 655.66
  A 4.71 4.69 69.0 0 1 648.47 654.29
  L 610.89 616.89
  A 0.83 0.83 0.0 0 0 609.72 616.89
  L 604.90 621.74"
/>
<path stroke="#4c7298" vector-effect="non-scaling-stroke" d="
  M 596.37 630.83
  Q 596.33 630.83 596.12 630.82
  A 0.05 0.03 13.3 0 0 596.09 630.83
  L 589.06 638.17
  A 3.87 3.85 67.1 0 0 587.98 640.85
  L 587.98 683.21
  A 3.43 3.41 -67.6 0 0 588.98 685.63
  L 624.74 721.71
  A 4.15 4.12 22.9 0 1 625.93 724.61
  L 625.93 759.63
  A 4.37 4.36 67.2 0 1 624.69 762.68
  C 621.43 766.03 619.52 769.75 622.54 774.23
  C 624.89 777.73 629.16 779.44 633.19 777.69
  C 638.95 775.20 641.80 767.77 636.32 763.18
  Q 635.11 762.17 634.51 761.32
  A 3.07 3.02 -62.7 0 1 633.94 759.48
  Q 634.22 744.03 634.11 721.21
  Q 634.10 719.25 632.18 717.32
  Q 616.66 701.74 597.73 683.00
  Q 596.60 681.89 596.61 679.26
  Q 596.67 651.72 596.71 631.19
  A 0.37 0.36 2.6 0 0 596.37 630.83"
/>
<path stroke="#4c7298" vector-effect="non-scaling-stroke" d="
  M 428.51 632.08
  L 428.51 699.86
  A 3.25 3.22 69.1 0 1 427.45 702.26
  Q 415.42 713.25 402.50 727.29
  A 4.36 4.34 66.5 0 0 401.34 730.25
  L 401.32 774.85
  A 8.58 8.58 0.0 0 1 401.20 776.28
  Q 401.17 776.48 398.77 780.69
  C 394.57 788.08 405.30 794.94 410.95 787.69
  Q 414.25 783.44 410.43 778.21
  A 4.25 4.24 -63.2 0 1 409.61 775.70
  L 409.61 734.01
  A 4.81 4.79 -21.3 0 1 411.17 730.47
  Q 423.21 719.44 434.18 707.89
  C 435.13 706.88 437.10 705.35 437.10 703.74
  Q 437.06 679.78 437.00 641.20
  A 3.08 3.06 22.8 0 0 436.11 639.04
  L 429.01 631.88
  A 0.29 0.29 0.0 0 0 428.51 632.08"
/>
<path stroke="#4c7298" vector-effect="non-scaling-stroke" d="
  M 458.18 661.27
  Q 458.38 704.86 458.09 718.75
  Q 458.05 720.98 456.49 722.49
  Q 448.42 730.26 437.79 740.88
  A 4.45 4.44 -22.6 0 0 436.50 744.01
  L 436.60 801.02
  A 1.96 1.92 -37.3 0 1 436.52 801.57
  Q 436.10 802.93 434.75 804.21
  C 431.98 806.84 431.72 811.85 433.78 814.67
  C 437.78 820.16 447.16 819.35 448.64 811.96
  Q 449.46 807.87 447.06 805.03
  Q 444.85 802.42 444.92 798.76
  Q 445.39 773.41 444.94 748.51
  Q 444.89 745.98 446.07 744.80
  Q 456.54 734.40 465.07 726.42
  A 4.67 4.66 68.5 0 0 466.54 723.02
  L 466.54 670.06
  A 3.29 3.24 -67.6 0 0 465.60 667.76
  L 458.88 660.98
  A 0.41 0.41 0.0 0 0 458.18 661.27"
/>
<path stroke="#4c7298" vector-effect="non-scaling-stroke" d="
  M 563.73 661.63
  L 557.40 668.02
  A 4.53 4.48 -22.9 0 0 556.10 671.18
  L 556.10 710.16
  A 2.96 2.94 22.3 0 0 556.99 712.27
  L 581.80 736.45
  A 2.20 2.17 -77.7 0 1 582.34 737.30
  Q 582.90 738.87 582.90 741.00
  Q 582.88 774.41 583.04 799.95
  A 2.70 2.68 66.8 0 1 582.29 801.84
  Q 580.94 803.25 580.11 804.34
  C 577.66 807.57 577.88 812.37 581.29 815.05
  C 590.21 822.08 600.26 809.58 591.89 802.15
  A 2.21 2.17 -69.5 0 1 591.16 800.51
  Q 591.25 762.82 591.15 736.65
  Q 591.14 733.37 589.13 731.38
  Q 578.88 721.20 566.19 709.33
  A 4.04 4.01 -68.6 0 1 564.92 706.39
  L 564.92 662.12
  A 0.70 0.70 0.0 0 0 563.73 661.63"
/>
<path stroke="#4c7298" vector-effect="non-scaling-stroke" d="
  M 486.09 689.04
  Q 486.04 716.04 486.22 741.49
  C 486.23 743.02 485.93 744.87 484.91 745.92
  Q 480.49 750.52 474.29 756.42
  A 3.69 3.67 -21.8 0 0 473.14 759.09
  L 473.14 827.56
  A 2.43 2.42 69.1 0 1 472.34 829.36
  C 463.06 837.69 475.82 849.18 483.52 841.36
  Q 486.60 838.23 485.08 832.81
  Q 484.90 832.16 482.62 829.15
  A 3.48 3.45 -67.7 0 1 481.93 827.48
  Q 481.70 825.59 481.72 823.25
  Q 482.15 788.85 481.74 764.26
  C 481.70 762.18 481.97 760.32 483.67 758.83
  Q 485.48 757.23 493.39 749.39
  Q 494.61 748.18 494.53 745.51
  Q 494.22 734.99 494.27 697.31
  A 2.58 2.56 23.1 0 0 493.54 695.52
  L 486.81 688.74
  A 0.42 0.42 0.0 0 0 486.09 689.04"
/>
<path stroke="#4c7298" vector-effect="non-scaling-stroke" d="
  M 535.24 690.08
  A 0.37 0.37 0.0 0 0 534.68 690.04
  L 528.02 696.86
  A 3.92 3.90 -22.8 0 0 526.91 699.56
  Q 526.83 716.55 526.92 733.50
  Q 526.94 736.28 528.00 737.29
  Q 536.53 745.32 545.25 753.58
  A 4.40 4.40 0.0 0 1 546.62 756.77
  L 546.62 828.90
  A 2.04 2.03 -16.2 0 1 545.67 830.62
  C 539.31 834.64 542.20 844.14 549.18 845.09
  C 558.27 846.32 562.18 836.56 555.50 830.33
  A 1.96 1.96 0.0 0 1 554.88 828.90
  L 554.88 753.27
  A 3.70 3.69 22.8 0 0 553.82 750.68
  Q 544.30 740.97 536.76 733.75
  Q 535.33 732.39 535.33 730.39
  Q 535.33 703.32 535.38 690.34
  A 0.24 0.09 -84.5 0 0 535.33 690.16
  Q 535.27 690.12 535.24 690.08"
/>
<path stroke="#2f4764" vector-effect="non-scaling-stroke" d="
  M 483.05 916.08
  L 325.72 759.35
  A 0.77 0.76 -54.6 0 0 324.49 759.56
  Q 320.90 767.10 315.63 773.75
  A 0.98 0.97 -48.5 0 0 315.70 775.05
  L 456.25 914.96
  A 0.83 0.82 -45.2 0 1 456.25 916.13
  L 448.49 923.81
  A 0.81 0.81 0.0 0 0 448.49 924.95
  L 510.89 986.75
  A 0.85 0.84 44.8 0 0 512.08 986.75
  L 574.27 925.11
  A 0.57 0.57 0.0 0 0 574.27 924.30
  L 566.42 916.52
  A 0.80 0.79 -45.3 0 1 566.42 915.39
  Q 615.81 865.72 625.92 855.17
  Q 637.82 842.76 646.90 833.90
  Q 662.99 818.19 706.71 774.65
  A 0.57 0.57 0.0 0 0 706.77 773.90
  L 696.36 759.87
  A 0.28 0.28 0.0 0 0 695.94 759.84
  L 539.47 916.40"
/>
<path stroke="#4c7298" vector-effect="non-scaling-stroke" d="
  M 539.47 916.40
  Q 534.74 897.05 515.99 893.90
  A 0.78 0.78 0.0 0 1 515.34 893.13
  L 515.34 710.79
  A 0.47 0.47 0.0 0 0 514.53 710.46
  L 513.03 711.98
  A 1.56 1.56 0.0 0 1 510.82 711.98
  L 507.30 708.43
  A 0.23 0.23 0.0 0 0 506.90 708.59
  L 506.90 892.74
  A 0.72 0.72 0.0 0 1 506.36 893.44
  C 502.54 894.44 498.46 895.56 495.27 897.50
  Q 484.94 903.76 483.05 916.08"
/>
<path stroke="#5f8eb6" vector-effect="non-scaling-stroke" d="
  M 539.47 916.40
  Q 541.06 926.61 537.74 934.71
  Q 531.69 949.47 514.45 951.86
  Q 504.42 953.24 496.36 947.88
  Q 484.57 940.03 482.74 926.00
  Q 482.40 923.40 483.05 916.08"
/>
<path stroke="#4c7298" vector-effect="non-scaling-stroke" d="
  M 478.90 222.31
  A 3.96 3.96 0.0 0 0 474.94 218.35
  A 3.96 3.96 0.0 0 0 470.98 222.31
  A 3.96 3.96 0.0 0 0 474.94 226.27
  A 3.96 3.96 0.0 0 0 478.90 222.31"
/>
<path stroke="#4c7298" vector-effect="non-scaling-stroke" d="
  M 434.7271 248.5787
  A 3.10 2.91 -119.0 0 0 433.6849 252.7008
  A 3.10 2.91 -119.0 0 0 437.7329 254.0013
  A 3.10 2.91 -119.0 0 0 438.7751 249.8792
  A 3.10 2.91 -119.0 0 0 434.7271 248.5787"
/>
<path stroke="#4c7298" vector-effect="non-scaling-stroke" d="
  M 590.2052 268.6491
  A 3.42 3.12 -6.9 0 0 586.4352 265.9626
  A 3.42 3.12 -6.9 0 0 583.4148 269.4709
  A 3.42 3.12 -6.9 0 0 587.1848 272.1574
  A 3.42 3.12 -6.9 0 0 590.2052 268.6491"
/>
<path stroke="#bedcf5" vector-effect="non-scaling-stroke" d="
  M 746.18 344.34
  C 749.67 344.34 754.36 342.51 757.27 340.84
  C 764.45 336.75 767.12 328.50 766.39 320.49
  C 765.59 311.77 759.32 305.52 750.78 303.83
  Q 750.02 303.68 746.28 303.67
  Q 742.54 303.66 741.77 303.81
  C 733.22 305.46 726.92 311.68 726.08 320.40
  C 725.32 328.40 727.95 336.66 735.10 340.79
  C 738.01 342.47 742.70 344.33 746.18 344.34"
/>
<path stroke="#bedcf5" vector-effect="non-scaling-stroke" d="
  M 297.46 323.61
  A 20.59 20.59 0.0 0 0 276.87 303.02
  A 20.59 20.59 0.0 0 0 256.28 323.61
  A 20.59 20.59 0.0 0 0 276.87 344.20
  A 20.59 20.59 0.0 0 0 297.46 323.61"
/>
<path stroke="#4c7298" vector-effect="non-scaling-stroke" d="
  M 365.76 348.72
  A 4.79 4.79 0.0 0 0 360.97 343.93
  A 4.79 4.79 0.0 0 0 356.18 348.72
  A 4.79 4.79 0.0 0 0 360.97 353.51
  A 4.79 4.79 0.0 0 0 365.76 348.72"
/>
<path stroke="#4c7298" vector-effect="non-scaling-stroke" d="
  M 631.72 300.75
  A 4.71 4.71 0.0 0 0 627.01 296.04
  A 4.71 4.71 0.0 0 0 622.30 300.75
  A 4.71 4.71 0.0 0 0 627.01 305.46
  A 4.71 4.71 0.0 0 0 631.72 300.75"
/>
<path stroke="#2f4764" vector-effect="non-scaling-stroke" d="
  M 643.3072 530.8612
  A 0.63 0.63 0.0 0 0 643.3072 529.9703
  L 512.6197 399.2828
  A 0.63 0.63 0.0 0 0 511.7288 399.2828
  L 380.1928 530.8188
  A 0.63 0.63 0.0 0 0 380.1928 531.7097
  L 510.8803 662.3972
  A 0.63 0.63 0.0 0 0 511.7712 662.3972
  L 643.3072 530.8612"
/>
<path stroke="#4c7298" vector-effect="non-scaling-stroke" d="
  M 724.6857 404.8748
  A 4.78 4.62 -123.3 0 0 723.4486 411.4065
  A 4.78 4.62 -123.3 0 0 729.9343 412.8652
  A 4.78 4.62 -123.3 0 0 731.1714 406.3335
  A 4.78 4.62 -123.3 0 0 724.6857 404.8748"
/>
<path stroke="#8d95a3" vector-effect="non-scaling-stroke" d="
  M 509.23 436.43
  Q 501.21 444.39 493.87 451.87
  Q 484.87 461.03 450.77 493.64"
/>
<path stroke="#4c7298" vector-effect="non-scaling-stroke" d="
  M 450.77 493.64
  L 445.19 499.06"
/>
<path stroke="#8d95a3" vector-effect="non-scaling-stroke" d="
  M 445.19 499.06
  Q 433.43 520.27 422.55 540.56
  Q 422.20 541.20 422.56 541.75"
/>
<path stroke="#4c7298" vector-effect="non-scaling-stroke" d="
  M 422.56 541.75
  L 510.91 631.08
  A 1.08 1.08 0.0 0 0 512.46 631.07
  C 540.94 601.63 569.72 572.99 597.45 543.70
  Q 598.41 542.68 598.98 541.45"
/>
<path stroke="#8d95a3" vector-effect="non-scaling-stroke" d="
  M 598.98 541.45
  Q 599.71 540.96 599.29 540.21
  Q 587.30 518.90 578.16 501.31"
/>
<path stroke="#4c7298" vector-effect="non-scaling-stroke" d="
  M 578.16 501.31
  L 571.60 493.77"
/>
<path stroke="#8d95a3" vector-effect="non-scaling-stroke" d="
  M 571.60 493.77
  L 513.97 437.78"
/>
<path stroke="#4c7298" vector-effect="non-scaling-stroke" d="
  M 513.97 437.78
  Q 513.21 436.59 511.64 435.46
  A 0.99 0.97 -36.1 0 0 510.74 435.33
  Q 509.64 435.71 509.23 436.43"
/>
<path stroke="#bedcf5" vector-effect="non-scaling-stroke" d="
  M 513.97 437.78
  Q 513.79 439.58 514.31 441.56
  A 1.90 1.82 -53.4 0 1 514.37 442.03
  L 514.21 493.09
  A 0.51 0.50 0.0 0 0 514.72 493.59
  L 571.60 493.77"
/>
<path stroke="#bedcf5" vector-effect="non-scaling-stroke" d="
  M 578.16 501.31
  Q 577.27 501.34 576.86 503.04
  Q 576.42 504.86 576.29 505.27
  Q 567.91 529.63 560.62 551.67
  A 0.70 0.70 0.0 0 0 561.49 552.56
  Q 577.88 547.51 596.23 541.68
  Q 596.90 541.47 598.98 541.45"
/>
<path stroke="#bedcf5" vector-effect="non-scaling-stroke" d="
  M 422.56 541.75
  Q 423.97 541.28 425.13 541.62
  Q 444.07 547.22 462.82 552.74
  A 0.43 0.43 0.0 0 0 463.34 552.19
  L 445.19 499.06"
/>
<path stroke="#bedcf5" vector-effect="non-scaling-stroke" d="
  M 450.77 493.64
  L 508.40 493.60
  A 0.47 0.47 0.0 0 0 508.87 493.14
  L 509.23 436.43"
/>
<path stroke="#4c7298" vector-effect="non-scaling-stroke" d="
  M 289.00 432.18
  A 3.90 3.90 0.0 0 0 285.10 428.28
  A 3.90 3.90 0.0 0 0 281.20 432.18
  A 3.90 3.90 0.0 0 0 285.10 436.08
  A 3.90 3.90 0.0 0 0 289.00 432.18"
/>
<path stroke="#bedcf5" vector-effect="non-scaling-stroke" d="
  M 451.51 498.71
  A 0.33 0.33 0.0 0 0 451.20 499.14
  L 467.73 548.67
  A 0.33 0.33 0.0 0 0 468.31 548.76
  L 505.18 499.24
  A 0.33 0.33 0.0 0 0 504.91 498.71
  L 451.51 498.71"
/>
<path stroke="#bedcf5" vector-effect="non-scaling-stroke" d="
  M 572.61 499.17
  A 0.35 0.35 0.0 0 0 572.28 498.71
  L 518.15 498.71
  A 0.35 0.35 0.0 0 0 517.86 499.27
  L 555.27 549.70
  A 0.35 0.35 0.0 0 0 555.88 549.60
  L 572.61 499.17"
/>
<path stroke="#bedcf5" vector-effect="non-scaling-stroke" d="
  M 471.73 553.50
  A 0.34 0.34 0.0 0 0 472.01 554.04
  L 550.98 553.90
  A 0.34 0.34 0.0 0 0 551.25 553.36
  L 511.67 500.10
  A 0.34 0.34 0.0 0 0 511.12 500.10
  L 471.73 553.50"
/>
<path stroke="#9dc9ef" vector-effect="non-scaling-stroke" d="
  M 511.49 628.47
  A 0.32 0.32 0.0 0 0 512.04 628.48
  L 554.67 560.03
  A 0.32 0.32 0.0 0 0 554.39 559.54
  L 470.58 559.54
  A 0.32 0.32 0.0 0 0 470.30 560.02
  L 511.49 628.47"
/>
<path stroke="#4c7298" vector-effect="non-scaling-stroke" d="
  M 814.84 488.29
  A 4.46 4.46 0.0 0 0 810.38 483.83
  A 4.46 4.46 0.0 0 0 805.92 488.29
  A 4.46 4.46 0.0 0 0 810.38 492.75
  A 4.46 4.46 0.0 0 0 814.84 488.29"
/>
<path stroke="#4c7298" vector-effect="non-scaling-stroke" d="
  M 184.74 530.43
  A 4.80 4.80 0.0 0 0 179.94 525.63
  A 4.80 4.80 0.0 0 0 175.14 530.43
  A 4.80 4.80 0.0 0 0 179.94 535.23
  A 4.80 4.80 0.0 0 0 184.74 530.43"
/>
<path stroke="#4c7298" vector-effect="non-scaling-stroke" d="
  M 814.69 574.77
  A 4.81 4.81 0.0 0 0 809.88 569.96
  A 4.81 4.81 0.0 0 0 805.07 574.77
  A 4.81 4.81 0.0 0 0 809.88 579.58
  A 4.81 4.81 0.0 0 0 814.69 574.77"
/>
<path stroke="#4c7298" vector-effect="non-scaling-stroke" d="
  M 264.15 616.86
  A 4.30 4.30 0.0 0 0 259.85 612.56
  A 4.30 4.30 0.0 0 0 255.55 616.86
  A 4.30 4.30 0.0 0 0 259.85 621.16
  A 4.30 4.30 0.0 0 0 264.15 616.86"
/>
<path stroke="#4c7298" vector-effect="non-scaling-stroke" d="
  M 714.0133 646.3613
  A 4.23 4.05 -88.6 0 0 709.8612 650.4910
  A 4.23 4.05 -88.6 0 0 713.8067 654.8187
  A 4.23 4.05 -88.6 0 0 717.9588 650.6890
  A 4.23 4.05 -88.6 0 0 714.0133 646.3613"
/>
<path stroke="#bedcf5" vector-effect="non-scaling-stroke" d="
  M 297.9157 735.0319
  A 17.81 17.81 0.0 0 0 280.5780 716.7618
  L 277.1392 716.6718
  A 17.81 17.81 0.0 0 0 258.8690 734.0094
  L 258.7643 738.0081
  A 17.81 17.81 0.0 0 0 276.1020 756.2782
  L 279.5408 756.3682
  A 17.81 17.81 0.0 0 0 297.8110 739.0306
  L 297.9157 735.0319"
/>
<path stroke="#bedcf5" vector-effect="non-scaling-stroke" d="
  M 763.1974 735.1032
  A 17.88 17.88 0.0 0 0 745.8557 716.7006
  L 742.3573 716.5968
  A 17.88 17.88 0.0 0 0 723.9547 733.9385
  L 723.8426 737.7168
  A 17.88 17.88 0.0 0 0 741.1843 756.1194
  L 744.6827 756.2232
  A 17.88 17.88 0.0 0 0 763.0853 738.8815
  L 763.1974 735.1032"
/>
<path stroke="#4c7298" vector-effect="non-scaling-stroke" d="
  M 633.85 769.81
  A 3.69 3.69 0.0 0 0 630.16 766.12
  A 3.69 3.69 0.0 0 0 626.47 769.81
  A 3.69 3.69 0.0 0 0 630.16 773.50
  A 3.69 3.69 0.0 0 0 633.85 769.81"
/>
<path stroke="#4c7298" vector-effect="non-scaling-stroke" d="
  M 408.01 783.82
  A 2.90 2.90 0.0 0 0 405.11 780.92
  A 2.90 2.90 0.0 0 0 402.21 783.82
  A 2.90 2.90 0.0 0 0 405.11 786.72
  A 2.90 2.90 0.0 0 0 408.01 783.82"
/>
</g>
<path fill="#1b2b46" d="
  M 1024.00 0.00
  L 1024.00 1024.00
  L 0.00 1024.00
  L 0.00 0.00
  L 1024.00 0.00
  Z
  M 483.22 146.36
  Q 484.53 153.39 490.08 159.92
  Q 496.48 167.45 506.06 169.18
  A 0.70 0.69 89.9 0 1 506.63 169.76
  Q 506.91 171.35 506.91 172.75
  Q 506.89 307.71 506.97 333.50
  Q 507.01 343.69 506.62 350.99
  A 0.38 0.37 -21.2 0 0 507.26 351.27
  L 510.35 348.17
  A 0.96 0.96 0.0 0 1 511.71 348.17
  L 514.99 351.49
  A 0.22 0.22 0.0 0 0 515.36 351.34
  L 515.36 169.83
  A 0.42 0.42 0.0 0 1 515.69 169.42
  Q 534.83 165.41 539.16 146.36
  Q 576.35 183.15 613.27 219.98
  Q 624.31 230.99 635.26 242.15
  C 652.76 259.97 668.31 275.19 685.29 292.44
  C 688.55 295.76 693.14 299.36 696.25 302.36
  A 0.59 0.59 0.0 0 0 697.18 302.22
  Q 700.88 295.40 706.13 289.12
  A 0.83 0.83 0.0 0 0 706.08 288.00
  L 564.14 146.71
  A 0.71 0.70 45.6 0 1 564.14 145.71
  L 573.99 135.95
  A 0.51 0.51 0.0 0 0 573.99 135.23
  L 512.19 73.72
  A 0.69 0.68 -44.7 0 0 511.22 73.72
  L 449.45 134.94
  A 1.15 1.14 -44.8 0 0 449.44 136.56
  L 457.77 144.97
  A 1.09 1.08 45.2 0 1 457.77 146.50
  Q 383.66 220.49 383.01 221.17
  Q 373.37 231.15 351.56 252.39
  Q 325.36 277.91 319.99 283.50
  Q 318.61 284.94 316.76 287.19
  A 0.79 0.79 0.0 0 0 316.69 288.10
  L 324.96 301.84
  A 1.38 1.38 0.0 0 0 327.11 302.10
  L 483.22 146.36
  Z
  M 535.62 370.23
  Q 535.81 368.83 535.79 366.75
  Q 535.74 360.19 535.70 319.27
  Q 535.70 316.55 536.78 315.50
  Q 546.28 306.37 550.82 301.80
  Q 552.58 300.03 552.54 297.00
  Q 552.14 261.82 552.73 228.63
  A 3.07 3.04 -27.6 0 1 553.27 226.93
  C 554.16 225.64 555.21 224.79 555.68 223.15
  C 558.86 212.05 542.60 207.35 540.16 217.63
  C 539.31 221.25 540.15 223.91 542.52 226.60
  Q 543.80 228.06 543.82 228.99
  Q 544.22 262.30 544.11 293.03
  Q 544.10 295.62 541.87 297.85
  Q 538.53 301.21 528.71 310.62
  A 4.41 4.39 -21.7 0 0 527.36 313.74
  Q 527.29 318.70 527.15 360.50
  C 527.14 363.53 532.35 367.77 535.08 370.41
  A 0.32 0.32 0.0 0 0 535.62 370.23
  Z
  M 486.99 371.64
  L 493.19 365.38
  A 4.87 4.85 67.3 0 0 494.60 361.93
  Q 494.50 324.65 494.59 315.87
  C 494.61 313.76 494.26 312.61 492.91 311.08
  Q 492.79 310.95 480.62 298.62
  Q 479.04 297.02 479.04 295.24
  Q 479.11 272.27 479.08 232.68
  A 3.82 3.81 65.7 0 1 480.03 230.16
  C 481.71 228.24 483.04 227.06 483.72 225.14
  C 485.52 220.02 481.30 214.46 476.33 213.32
  C 471.70 212.26 466.98 216.35 466.09 220.74
  Q 464.99 226.12 470.00 229.91
  A 1.58 1.57 -71.7 0 1 470.63 231.17
  Q 470.77 258.52 470.37 296.75
  Q 470.33 300.51 472.86 303.11
  Q 477.90 308.31 484.14 314.33
  C 485.49 315.62 486.16 317.06 486.14 318.75
  Q 486.02 333.42 485.82 371.16
  A 0.68 0.68 0.0 0 0 486.99 371.64
  Z
  M 458.14 400.42
  L 464.66 393.84
  A 4.45 4.41 67.4 0 0 465.93 390.73
  Q 465.86 369.18 465.80 348.00
  C 465.79 344.35 465.65 342.95 463.13 340.46
  Q 453.81 331.23 441.99 318.89
  A 4.20 4.16 -66.9 0 1 440.83 315.97
  Q 440.93 292.90 440.66 258.99
  Q 440.65 257.41 442.34 253.69
  C 445.09 247.62 438.15 241.47 432.42 245.09
  Q 427.98 247.89 429.56 253.42
  C 430.08 255.28 431.86 256.58 432.41 258.28
  A 1.39 1.29 -57.0 0 1 432.49 258.74
  L 432.49 320.40
  A 3.46 3.45 22.2 0 0 433.54 322.88
  L 456.21 344.97
  A 0.29 0.24 -85.3 0 1 456.26 345.04
  Q 457.08 346.35 457.08 348.25
  Q 457.09 384.89 456.97 399.93
  A 0.69 0.68 -22.2 0 0 458.14 400.42
  Z
  M 564.63 400.31
  A 0.49 0.49 0.0 0 0 565.47 399.96
  Q 564.80 358.79 564.81 355.25
  C 564.82 352.35 564.32 347.73 566.73 345.24
  Q 581.76 329.73 588.49 322.75
  Q 590.54 320.62 590.54 319.25
  Q 590.57 286.49 590.50 278.50
  Q 590.49 275.94 591.57 274.99
  C 596.55 270.62 595.25 265.17 589.85 262.00
  C 584.15 258.65 577.91 265.23 579.20 270.94
  C 579.69 273.13 581.47 274.49 582.27 276.30
  A 4.43 4.31 33.9 0 1 582.62 277.96
  Q 582.66 288.63 582.39 299.00
  Q 582.38 299.42 582.35 314.51
  Q 582.35 317.10 580.94 318.69
  Q 576.14 324.05 558.68 341.45
  Q 556.97 343.16 556.97 345.99
  Q 556.98 368.72 557.07 391.60
  A 3.00 2.98 22.3 0 0 557.96 393.70
  L 564.63 400.31
  Z
  M 428.68 429.05
  L 435.87 421.80
  A 2.88 2.87 -22.7 0 0 436.70 419.78
  Q 436.82 378.72 437.03 369.01
  Q 437.08 366.68 436.05 365.68
  Q 432.27 361.98 406.25 335.91
  C 404.54 334.20 403.85 332.73 403.89 330.49
  Q 404.22 312.37 404.03 303.50
  Q 403.83 293.64 404.06 285.68
  A 2.19 2.18 -18.9 0 1 404.88 284.02
  Q 408.54 281.10 408.26 276.46
  C 408.07 273.37 405.41 270.07 402.43 269.23
  Q 398.72 268.17 395.30 270.12
  Q 389.85 273.24 392.10 280.71
  A 2.17 2.09 -74.8 0 0 392.51 281.46
  L 394.93 284.36
  A 2.79 2.78 24.9 0 1 395.59 286.16
  Q 395.56 317.35 395.54 335.48
  Q 395.54 337.31 397.12 338.87
  Q 415.93 357.39 427.33 368.88
  A 3.36 3.34 -67.6 0 1 428.31 371.25
  L 428.31 428.89
  A 0.22 0.21 67.6 0 0 428.68 429.05
  Z
  M 608.43 442.74
  L 614.09 448.37
  A 0.27 0.27 0.0 0 0 614.47 448.37
  L 645.09 417.60
  A 3.62 3.59 -67.3 0 1 647.64 416.54
  L 659.70 416.54
  A 3.02 3.00 22.4 0 0 661.83 415.66
  L 723.39 354.65
  A 1.06 1.05 -51.4 0 1 724.68 354.50
  C 727.29 356.12 730.54 358.15 733.80 359.21
  Q 748.88 364.10 762.06 358.10
  C 778.26 350.73 787.61 332.19 783.83 315.30
  Q 780.87 302.04 769.69 293.07
  C 760.46 285.68 746.25 283.12 734.91 286.97
  C 713.95 294.09 703.46 314.90 710.30 336.19
  C 711.72 340.60 714.75 344.76 717.29 348.00
  A 0.90 0.90 0.0 0 1 717.30 349.10
  C 712.95 354.76 705.39 361.14 701.89 364.64
  Q 680.94 385.63 659.23 406.73
  Q 657.68 408.24 655.98 408.24
  Q 647.86 408.25 643.85 408.38
  A 3.97 3.97 0.0 0 0 641.17 409.54
  L 608.43 442.43
  A 0.23 0.22 -46.0 0 0 608.43 442.74
  Z
  M 407.46 441.65
  A 0.57 0.57 0.0 0 1 406.48 442.05
  Q 403.58 439.11 377.96 413.65
  C 376.73 412.43 375.59 410.97 373.94 410.80
  C 370.19 410.42 367.95 411.34 364.99 408.50
  Q 361.20 404.86 358.44 402.07
  Q 334.39 377.77 305.70 349.12
  A 0.75 0.75 0.0 0 1 305.67 348.09
  C 313.61 338.97 316.57 325.54 313.56 314.53
  C 310.09 301.80 300.57 291.81 287.86 287.63
  C 270.82 282.03 251.96 289.26 243.42 304.61
  C 234.72 320.25 237.45 338.21 250.17 350.87
  Q 264.81 365.44 286.01 360.94
  Q 292.84 359.48 298.31 355.34
  A 0.76 0.74 46.9 0 1 299.27 355.38
  C 304.44 360.01 309.22 364.21 313.89 369.03
  Q 337.68 393.58 360.30 415.87
  C 361.65 417.21 362.61 418.27 364.55 418.45
  C 368.64 418.81 370.34 418.09 373.39 421.12
  Q 386.22 433.86 404.73 452.83
  A 0.30 0.29 -44.3 0 0 405.14 452.83
  L 415.09 442.97
  A 3.14 3.13 67.7 0 0 416.02 440.74
  L 416.02 400.45
  A 2.90 2.90 0.0 0 0 414.96 398.21
  Q 410.95 394.92 409.54 393.47
  Q 391.94 375.52 370.94 355.00
  A 1.64 1.64 0.0 0 1 370.60 353.16
  C 373.60 346.60 368.76 339.31 361.59 338.75
  C 352.70 338.05 347.20 348.60 353.03 355.22
  Q 356.59 359.26 361.65 358.88
  A 3.59 3.57 65.3 0 1 364.47 359.93
  L 406.62 402.46
  A 2.87 2.87 0.0 0 1 407.46 404.49
  L 407.46 441.65
  Z
  M 596.22 417.93
  L 596.22 387.91
  A 3.28 3.26 -22.7 0 1 597.18 385.60
  Q 622.70 360.15 628.73 354.11
  C 630.44 352.40 630.99 351.09 630.97 348.75
  Q 630.87 328.05 631.46 310.97
  A 2.66 2.61 -20.8 0 1 632.32 309.10
  C 635.93 305.78 638.21 302.39 636.31 297.27
  Q 634.41 292.16 628.99 291.17
  C 619.57 289.44 614.19 298.66 618.56 306.46
  A 4.28 4.26 1.3 0 0 620.04 308.00
  L 621.94 309.19
  A 2.26 2.25 -73.4 0 1 623.00 311.16
  Q 622.52 330.22 622.63 345.39
  C 622.65 348.16 622.00 349.30 620.15 351.14
  Q 601.15 369.98 588.30 382.50
  A 2.59 2.58 -22.4 0 0 587.53 384.34
  L 587.53 421.20
  A 1.89 1.87 -67.9 0 0 588.09 422.54
  L 595.69 430.11
  A 0.85 0.85 0.0 0 0 596.89 430.11
  L 664.01 363.03
  A 1.50 0.57 -27.2 0 1 664.14 362.91
  Q 665.19 362.16 668.61 361.40
  C 677.48 359.42 675.34 347.40 666.64 347.68
  Q 661.55 347.85 660.34 352.60
  C 659.65 355.29 658.69 356.82 657.36 358.11
  Q 635.79 379.08 599.49 415.74
  Q 597.29 417.96 596.92 418.26
  A 0.43 0.43 0.0 0 1 596.22 417.93
  Z
  M 256.25 689.52
  A 0.14 0.14 0.0 0 0 256.28 689.30
  L 99.40 531.02
  A 0.44 0.43 -44.5 0 1 99.41 530.40
  Q 175.90 454.95 183.36 447.61
  Q 212.24 419.19 239.06 390.81
  Q 247.23 382.17 254.58 373.03
  A 0.56 0.55 -56.5 0 0 254.42 372.20
  Q 248.03 368.73 241.40 363.27
  A 1.29 1.29 0.0 0 0 239.55 363.49
  Q 237.47 366.26 234.25 369.50
  Q 205.93 397.98 170.31 432.81
  C 160.76 442.16 149.07 454.54 141.02 462.52
  Q 86.77 516.35 81.52 521.52
  Q 77.35 525.62 73.23 530.07
  A 0.79 0.79 0.0 0 0 73.26 531.16
  Q 134.22 591.48 197.68 655.31
  Q 220.12 677.88 238.65 697.36
  A 1.79 1.78 53.9 0 0 240.78 697.70
  L 256.25 689.52
  Z
  M 766.83 373.58
  Q 767.41 374.34 770.82 377.81
  Q 779.00 386.17 804.67 411.54
  Q 815.11 421.85 834.94 442.08
  Q 874.88 482.82 923.52 529.91
  A 0.99 0.99 0.0 0 1 923.53 531.32
  L 766.59 688.98
  A 0.64 0.64 0.0 0 0 766.70 689.98
  L 779.87 698.18
  A 1.01 1.00 -51.1 0 0 781.11 698.04
  L 949.47 531.17
  A 0.57 0.55 45.0 0 0 949.46 530.38
  Q 919.88 501.22 881.71 464.18
  C 870.59 453.39 860.15 442.20 850.63 432.88
  Q 840.51 422.99 826.67 408.81
  Q 812.31 394.12 788.88 371.33
  C 786.59 369.11 783.87 365.96 781.84 364.04
  A 0.43 0.41 -38.5 0 0 781.33 363.99
  L 767.02 372.60
  A 0.67 0.67 0.0 0 0 766.83 373.58
  Z
  M 352.26 530.78
  A 0.66 0.66 0.0 0 0 352.26 531.72
  L 511.19 689.12
  A 0.66 0.66 0.0 0 0 512.11 689.12
  L 671.33 531.33
  A 0.66 0.66 0.0 0 0 671.33 530.39
  L 511.73 371.52
  A 0.66 0.66 0.0 0 0 510.79 371.52
  L 352.26 530.78
  Z
  M 624.08 458.63
  L 628.92 463.42
  A 5.79 5.77 67.3 0 0 632.98 465.09
  L 676.95 465.09
  A 3.44 3.41 20.3 0 0 679.54 463.91
  Q 685.47 457.10 692.76 449.97
  C 702.19 440.74 713.24 429.36 720.42 421.92
  Q 723.01 419.23 724.63 419.13
  Q 729.38 418.80 730.42 418.43
  C 741.87 414.31 738.42 397.38 725.67 399.09
  Q 720.09 399.84 717.80 405.88
  C 716.31 409.81 719.65 411.88 715.76 415.52
  Q 695.62 434.35 675.37 455.88
  A 2.19 2.19 0.0 0 1 674.67 456.38
  Q 673.42 456.96 671.28 456.95
  Q 658.26 456.91 624.78 456.93
  A 0.99 0.99 0.0 0 0 624.08 458.63
  Z
  M 390.05 466.96
  L 367.73 466.96
  A 0.72 0.70 66.8 0 1 367.23 466.75
  L 330.96 430.15
  A 3.89 3.89 0.0 0 0 328.21 429.01
  L 295.48 429.01
  A 3.12 3.12 0.0 0 1 292.92 427.67
  C 290.38 424.06 286.75 422.15 282.37 423.59
  C 270.97 427.33 275.76 444.27 288.73 440.24
  C 290.42 439.71 292.18 437.47 294.76 437.45
  Q 301.70 437.39 323.28 437.37
  Q 326.86 437.37 329.30 439.94
  Q 336.10 447.12 360.82 472.07
  C 361.82 473.07 363.46 475.02 364.78 475.07
  Q 373.04 475.32 381.44 475.16
  A 4.15 4.14 21.9 0 0 384.26 473.96
  L 390.42 467.86
  A 0.53 0.53 0.0 0 0 390.05 466.96
  Z
  M 649.50 484.23
  L 655.60 490.39
  A 4.36 4.36 0.0 0 0 658.73 491.69
  Q 680.96 491.64 701.68 491.40
  Q 704.43 491.36 705.54 490.29
  Q 716.54 479.72 743.92 451.76
  C 745.47 450.18 746.49 449.77 748.51 449.71
  Q 755.67 449.49 762.20 449.78
  A 3.28 3.17 58.5 0 1 763.48 450.11
  Q 763.98 450.36 765.79 451.49
  C 773.97 456.58 780.83 445.69 774.08 439.97
  C 769.89 436.43 766.63 438.97 763.25 441.72
  A 1.51 1.51 0.0 0 1 762.24 442.06
  Q 751.40 441.72 744.50 441.61
  Q 741.61 441.56 740.12 443.12
  Q 713.83 470.61 702.10 482.20
  A 2.57 2.49 15.6 0 1 700.85 482.88
  Q 698.04 483.50 693.75 483.50
  Q 650.44 483.46 649.90 483.40
  A 0.49 0.49 0.0 0 0 649.50 484.23
  Z
  M 361.33 497.02
  Q 348.52 497.00 334.50 496.90
  Q 331.84 496.88 330.32 495.42
  Q 321.99 487.44 315.19 480.53
  A 4.87 4.86 67.8 0 0 311.75 479.08
  Q 293.29 478.99 271.17 479.15
  C 268.18 479.17 267.20 478.74 265.29 476.82
  Q 254.47 465.99 245.03 456.09
  A 2.90 2.90 0.0 0 1 244.24 454.26
  Q 243.90 448.46 239.40 446.28
  C 229.91 441.69 223.31 455.74 231.61 460.62
  Q 233.83 461.93 237.79 461.55
  A 3.15 3.14 66.5 0 1 240.44 462.60
  Q 250.98 474.57 264.06 486.85
  A 2.58 2.56 -22.9 0 0 265.80 487.55
  Q 287.38 487.89 308.50 487.68
  Q 310.78 487.66 312.06 488.94
  Q 321.88 498.77 327.68 504.32
  Q 329.07 505.65 331.27 505.61
  Q 337.70 505.49 352.69 505.58
  A 0.39 0.37 20.1 0 0 352.97 505.46
  L 361.35 497.05
  A 0.02 0.02 0.0 0 0 361.33 497.02
  Z
  M 677.06 511.01
  L 682.88 516.77
  A 4.57 4.54 -22.5 0 0 686.09 518.09
  L 747.31 518.09
  A 4.93 4.93 0.0 0 0 750.72 516.72
  Q 763.47 504.47 773.93 493.92
  C 776.00 491.83 777.03 491.79 779.75 491.80
  Q 784.42 491.81 799.25 491.80
  A 2.29 2.27 72.9 0 1 801.14 492.81
  Q 805.30 498.98 811.79 498.13
  C 821.19 496.90 823.60 483.86 814.77 479.68
  Q 808.17 476.56 802.93 481.93
  C 801.32 483.58 800.79 483.82 798.50 483.80
  Q 789.20 483.70 780.00 483.45
  C 777.80 483.40 772.34 483.37 770.27 485.52
  Q 760.02 496.11 746.76 508.73
  A 2.51 2.29 -76.3 0 1 746.12 509.16
  Q 744.18 510.04 741.75 510.02
  Q 713.64 509.85 677.52 509.89
  A 0.65 0.65 0.0 0 0 677.06 511.01
  Z
  M 169.01 530.62
  Q 169.00 535.19 171.75 537.99
  Q 178.35 544.72 186.85 539.37
  C 188.01 538.64 189.34 536.78 190.15 535.69
  A 2.10 2.08 -71.6 0 1 191.83 534.84
  L 330.90 534.84
  A 0.28 0.28 0.0 0 0 331.10 534.36
  Q 329.64 532.96 328.10 531.38
  Q 327.92 531.20 327.92 530.85
  Q 327.92 530.49 328.10 530.31
  Q 329.65 528.74 331.11 527.34
  A 0.28 0.28 0.0 0 0 330.91 526.86
  L 191.84 526.46
  A 2.10 2.08 71.7 0 1 190.16 525.61
  C 189.36 524.52 188.03 522.65 186.87 521.92
  Q 178.39 516.55 171.77 523.26
  Q 169.01 526.05 169.01 530.62
  Z
  M 697.30 530.89
  Q 697.30 531.34 697.17 531.47
  Q 695.85 532.85 694.45 534.28
  A 0.41 0.41 0.0 0 0 694.75 534.98
  Q 718.16 535.01 857.72 534.89
  C 860.33 534.89 861.87 533.48 861.87 530.83
  C 861.87 528.19 860.33 526.78 857.72 526.78
  Q 718.16 526.75 694.75 526.80
  A 0.41 0.41 0.0 0 0 694.45 527.50
  Q 695.85 528.93 697.17 530.31
  Q 697.30 530.44 697.30 530.89
  Z
  M 672.26 555.40
  L 746.37 555.40
  A 3.58 3.57 67.6 0 1 748.91 556.46
  Q 759.45 567.15 770.75 577.76
  Q 772.27 579.18 774.26 579.20
  Q 785.73 579.29 798.27 579.13
  A 2.24 2.24 0.0 0 1 800.16 580.11
  C 805.56 588.04 817.77 587.12 820.58 577.58
  Q 822.31 571.69 817.58 567.32
  Q 810.90 561.14 803.25 565.94
  C 801.85 566.81 800.73 568.56 799.86 569.93
  A 1.32 1.30 -74.5 0 1 798.82 570.53
  Q 788.13 571.00 778.51 570.86
  C 776.56 570.83 775.25 570.36 773.93 569.08
  Q 758.75 554.32 752.49 548.26
  Q 751.35 547.16 749.26 547.17
  Q 730.16 547.26 680.09 547.07
  A 0.54 0.53 -68.0 0 0 679.70 547.24
  L 672.17 555.21
  A 0.12 0.11 20.9 0 0 672.26 555.40
  Z
  M 354.89 559.45
  L 346.60 551.48
  A 0.76 0.75 66.4 0 0 346.08 551.27
  L 252.45 551.00
  A 1.91 1.74 33.8 0 0 251.91 551.08
  Q 249.97 551.71 248.10 553.59
  Q 236.52 565.22 224.03 577.80
  C 221.84 580.01 218.77 579.85 217.02 581.11
  Q 213.84 583.41 214.44 587.83
  C 215.23 593.61 222.61 595.52 226.39 591.31
  C 228.08 589.42 227.86 585.34 229.76 583.51
  Q 240.50 573.17 252.20 561.18
  Q 253.94 559.40 257.74 559.41
  Q 306.93 559.57 354.86 559.52
  A 0.04 0.04 0.0 0 0 354.89 559.45
  Z
  M 647.98 581.05
  Q 686.56 581.36 702.99 580.83
  Q 705.66 580.74 706.46 581.55
  Q 730.43 605.46 746.10 620.88
  A 3.55 3.52 -22.4 0 0 748.59 621.90
  Q 755.43 621.89 761.50 622.09
  C 763.84 622.17 764.76 622.35 766.62 623.80
  C 775.23 630.50 783.65 619.56 777.31 612.51
  C 774.24 609.11 769.58 609.51 766.06 612.58
  C 763.77 614.57 756.94 614.03 753.66 613.93
  C 750.77 613.85 750.06 613.15 747.81 610.94
  Q 726.01 589.51 710.95 573.94
  A 3.46 3.42 -21.7 0 0 708.47 572.89
  L 655.91 572.89
  A 3.87 3.84 22.1 0 0 653.16 574.04
  L 647.46 579.79
  A 0.74 0.74 0.0 0 0 647.98 581.05
  Z
  M 383.39 588.39
  A 0.47 0.47 0.0 0 0 383.73 587.58
  L 376.93 580.82
  A 3.04 3.04 0.0 0 0 374.78 579.93
  L 292.98 579.93
  A 1.77 1.74 22.2 0 0 291.74 580.44
  L 265.21 607.10
  A 2.02 2.02 0.0 0 1 263.25 607.62
  Q 254.10 605.14 250.67 613.68
  C 247.79 620.85 255.28 627.93 262.32 626.34
  C 267.32 625.21 270.43 621.54 270.28 616.49
  Q 270.20 613.82 270.21 613.69
  A 1.39 1.35 70.1 0 1 270.62 612.78
  L 294.89 589.27
  A 2.91 2.87 -74.7 0 1 296.13 588.55
  Q 297.80 588.08 302.00 588.07
  Q 339.80 588.02 383.39 588.39
  Z
  M 390.27 595.25
  L 374.43 611.25
  A 3.25 3.23 22.5 0 1 372.10 612.21
  Q 362.24 612.14 347.38 612.13
  Q 344.70 612.13 343.42 613.46
  Q 327.54 629.93 309.97 647.56
  A 5.32 5.09 6.1 0 1 308.92 648.37
  Q 307.60 649.14 306.14 649.66
  C 296.61 653.00 301.75 666.70 311.20 662.63
  Q 314.89 661.04 314.52 655.73
  A 2.38 2.38 0.0 0 1 315.20 653.88
  Q 322.56 646.34 333.59 635.84
  Q 336.72 632.87 346.12 622.52
  C 347.37 621.15 348.53 620.69 350.26 620.72
  Q 368.73 621.04 375.17 620.57
  A 6.30 6.25 20.4 0 0 379.12 618.78
  L 396.45 601.60
  A 0.97 0.96 -44.8 0 0 396.46 600.24
  L 391.51 595.25
  A 0.87 0.87 0.0 0 0 390.27 595.25
  Z
  M 625.76 601.12
  A 0.71 0.71 0.0 0 0 625.76 602.12
  L 644.17 620.35
  A 2.71 2.70 -23.1 0 0 646.12 621.13
  Q 658.22 620.96 675.28 621.08
  C 677.23 621.09 678.98 621.58 680.20 622.88
  Q 692.90 636.36 703.37 646.31
  A 3.23 3.21 14.1 0 1 704.27 647.80
  C 704.78 649.59 704.39 651.56 705.31 653.61
  C 708.33 660.40 716.82 662.02 721.40 656.34
  C 724.00 653.12 723.95 647.31 720.83 644.20
  C 718.07 641.46 715.12 640.90 711.10 641.00
  A 2.77 2.75 66.6 0 1 709.08 640.19
  L 682.79 614.03
  A 3.45 3.45 0.0 0 0 680.35 613.02
  L 649.69 613.02
  A 1.62 1.60 -22.3 0 1 648.55 612.55
  L 631.88 596.04
  A 0.75 0.75 0.0 0 0 630.82 596.04
  L 625.76 601.12
  Z
  M 408.06 626.69
  Q 407.96 634.38 408.05 665.74
  Q 408.06 668.42 406.84 669.62
  Q 387.04 689.13 366.70 709.46
  Q 364.86 711.31 364.79 713.83
  Q 364.54 722.42 364.70 733.97
  A 4.56 4.56 0.0 0 1 363.91 736.60
  C 363.05 737.87 361.55 739.42 361.05 741.12
  C 358.78 748.71 367.14 754.34 373.72 750.59
  Q 379.04 747.56 376.86 740.42
  A 0.51 0.43 -77.3 0 0 376.76 740.23
  L 373.94 736.42
  A 3.75 3.73 25.6 0 1 373.21 734.36
  Q 372.78 724.62 373.21 717.00
  Q 373.30 715.37 374.94 713.69
  Q 395.40 692.75 414.82 673.41
  A 5.58 5.56 67.6 0 0 416.45 669.47
  L 416.45 621.08
  A 2.97 2.97 0.0 0 0 415.58 618.98
  L 409.75 613.21
  A 0.56 0.56 0.0 0 0 408.97 613.21
  L 364.43 657.36
  A 3.80 3.76 22.4 0 1 361.77 658.45
  L 357.53 658.45
  A 2.59 2.56 22.5 0 0 355.72 659.19
  L 305.38 709.09
  A 1.11 1.11 0.0 0 1 303.86 709.13
  C 286.15 693.32 259.66 696.43 246.64 715.99
  C 236.22 731.64 239.08 753.09 253.88 765.18
  Q 259.54 769.80 264.41 771.57
  Q 284.95 779.03 302.03 765.45
  Q 309.95 759.14 313.58 749.32
  C 317.80 737.92 316.09 727.52 310.61 716.84
  A 0.85 0.84 54.1 0 1 310.76 715.86
  L 359.05 668.00
  A 4.68 4.68 0.0 0 1 362.35 666.64
  L 365.66 666.64
  A 4.76 4.74 22.3 0 0 369.03 665.24
  L 407.46 626.44
  A 0.35 0.35 0.0 0 1 408.06 626.69
  Z
  M 604.90 621.74
  A 1.16 1.16 0.0 0 0 604.90 623.38
  L 644.49 662.79
  A 4.01 3.98 67.2 0 0 647.30 663.95
  L 656.44 663.95
  A 5.22 5.19 -22.5 0 1 660.11 665.46
  L 710.87 715.99
  A 0.72 0.71 -53.6 0 1 710.99 716.83
  C 704.23 729.19 704.28 745.33 712.14 756.92
  C 721.03 770.01 735.89 776.26 751.47 773.37
  C 779.74 768.14 791.01 732.23 771.73 711.53
  Q 763.76 702.97 752.55 700.22
  Q 732.72 695.34 717.65 708.36
  A 1.66 1.66 0.0 0 1 715.38 708.27
  Q 703.37 696.13 664.14 657.42
  C 661.84 655.15 654.55 655.82 651.53 655.66
  A 4.71 4.69 69.0 0 1 648.47 654.29
  L 610.89 616.89
  A 0.83 0.83 0.0 0 0 609.72 616.89
  L 604.90 621.74
  Z
  M 596.37 630.83
  Q 596.33 630.83 596.12 630.82
  A 0.05 0.03 13.3 0 0 596.09 630.83
  L 589.06 638.17
  A 3.87 3.85 67.1 0 0 587.98 640.85
  L 587.98 683.21
  A 3.43 3.41 -67.6 0 0 588.98 685.63
  L 624.74 721.71
  A 4.15 4.12 22.9 0 1 625.93 724.61
  L 625.93 759.63
  A 4.37 4.36 67.2 0 1 624.69 762.68
  C 621.43 766.03 619.52 769.75 622.54 774.23
  C 624.89 777.73 629.16 779.44 633.19 777.69
  C 638.95 775.20 641.80 767.77 636.32 763.18
  Q 635.11 762.17 634.51 761.32
  A 3.07 3.02 -62.7 0 1 633.94 759.48
  Q 634.22 744.03 634.11 721.21
  Q 634.10 719.25 632.18 717.32
  Q 616.66 701.74 597.73 683.00
  Q 596.60 681.89 596.61 679.26
  Q 596.67 651.72 596.71 631.19
  A 0.37 0.36 2.6 0 0 596.37 630.83
  Z
  M 428.51 632.08
  L 428.51 699.86
  A 3.25 3.22 69.1 0 1 427.45 702.26
  Q 415.42 713.25 402.50 727.29
  A 4.36 4.34 66.5 0 0 401.34 730.25
  L 401.32 774.85
  A 8.58 8.58 0.0 0 1 401.20 776.28
  Q 401.17 776.48 398.77 780.69
  C 394.57 788.08 405.30 794.94 410.95 787.69
  Q 414.25 783.44 410.43 778.21
  A 4.25 4.24 -63.2 0 1 409.61 775.70
  L 409.61 734.01
  A 4.81 4.79 -21.3 0 1 411.17 730.47
  Q 423.21 719.44 434.18 707.89
  C 435.13 706.88 437.10 705.35 437.10 703.74
  Q 437.06 679.78 437.00 641.20
  A 3.08 3.06 22.8 0 0 436.11 639.04
  L 429.01 631.88
  A 0.29 0.29 0.0 0 0 428.51 632.08
  Z
  M 458.18 661.27
  Q 458.38 704.86 458.09 718.75
  Q 458.05 720.98 456.49 722.49
  Q 448.42 730.26 437.79 740.88
  A 4.45 4.44 -22.6 0 0 436.50 744.01
  L 436.60 801.02
  A 1.96 1.92 -37.3 0 1 436.52 801.57
  Q 436.10 802.93 434.75 804.21
  C 431.98 806.84 431.72 811.85 433.78 814.67
  C 437.78 820.16 447.16 819.35 448.64 811.96
  Q 449.46 807.87 447.06 805.03
  Q 444.85 802.42 444.92 798.76
  Q 445.39 773.41 444.94 748.51
  Q 444.89 745.98 446.07 744.80
  Q 456.54 734.40 465.07 726.42
  A 4.67 4.66 68.5 0 0 466.54 723.02
  L 466.54 670.06
  A 3.29 3.24 -67.6 0 0 465.60 667.76
  L 458.88 660.98
  A 0.41 0.41 0.0 0 0 458.18 661.27
  Z
  M 563.73 661.63
  L 557.40 668.02
  A 4.53 4.48 -22.9 0 0 556.10 671.18
  L 556.10 710.16
  A 2.96 2.94 22.3 0 0 556.99 712.27
  L 581.80 736.45
  A 2.20 2.17 -77.7 0 1 582.34 737.30
  Q 582.90 738.87 582.90 741.00
  Q 582.88 774.41 583.04 799.95
  A 2.70 2.68 66.8 0 1 582.29 801.84
  Q 580.94 803.25 580.11 804.34
  C 577.66 807.57 577.88 812.37 581.29 815.05
  C 590.21 822.08 600.26 809.58 591.89 802.15
  A 2.21 2.17 -69.5 0 1 591.16 800.51
  Q 591.25 762.82 591.15 736.65
  Q 591.14 733.37 589.13 731.38
  Q 578.88 721.20 566.19 709.33
  A 4.04 4.01 -68.6 0 1 564.92 706.39
  L 564.92 662.12
  A 0.70 0.70 0.0 0 0 563.73 661.63
  Z
  M 486.09 689.04
  Q 486.04 716.04 486.22 741.49
  C 486.23 743.02 485.93 744.87 484.91 745.92
  Q 480.49 750.52 474.29 756.42
  A 3.69 3.67 -21.8 0 0 473.14 759.09
  L 473.14 827.56
  A 2.43 2.42 69.1 0 1 472.34 829.36
  C 463.06 837.69 475.82 849.18 483.52 841.36
  Q 486.60 838.23 485.08 832.81
  Q 484.90 832.16 482.62 829.15
  A 3.48 3.45 -67.7 0 1 481.93 827.48
  Q 481.70 825.59 481.72 823.25
  Q 482.15 788.85 481.74 764.26
  C 481.70 762.18 481.97 760.32 483.67 758.83
  Q 485.48 757.23 493.39 749.39
  Q 494.61 748.18 494.53 745.51
  Q 494.22 734.99 494.27 697.31
  A 2.58 2.56 23.1 0 0 493.54 695.52
  L 486.81 688.74
  A 0.42 0.42 0.0 0 0 486.09 689.04
  Z
  M 535.24 690.08
  A 0.37 0.37 0.0 0 0 534.68 690.04
  L 528.02 696.86
  A 3.92 3.90 -22.8 0 0 526.91 699.56
  Q 526.83 716.55 526.92 733.50
  Q 526.94 736.28 528.00 737.29
  Q 536.53 745.32 545.25 753.58
  A 4.40 4.40 0.0 0 1 546.62 756.77
  L 546.62 828.90
  A 2.04 2.03 -16.2 0 1 545.67 830.62
  C 539.31 834.64 542.20 844.14 549.18 845.09
  C 558.27 846.32 562.18 836.56 555.50 830.33
  A 1.96 1.96 0.0 0 1 554.88 828.90
  L 554.88 753.27
  A 3.70 3.69 22.8 0 0 553.82 750.68
  Q 544.30 740.97 536.76 733.75
  Q 535.33 732.39 535.33 730.39
  Q 535.33 703.32 535.38 690.34
  A 0.24 0.09 -84.5 0 0 535.33 690.16
  Q 535.27 690.12 535.24 690.08
  Z
  M 483.05 916.08
  L 325.72 759.35
  A 0.77 0.76 -54.6 0 0 324.49 759.56
  Q 320.90 767.10 315.63 773.75
  A 0.98 0.97 -48.5 0 0 315.70 775.05
  L 456.25 914.96
  A 0.83 0.82 -45.2 0 1 456.25 916.13
  L 448.49 923.81
  A 0.81 0.81 0.0 0 0 448.49 924.95
  L 510.89 986.75
  A 0.85 0.84 44.8 0 0 512.08 986.75
  L 574.27 925.11
  A 0.57 0.57 0.0 0 0 574.27 924.30
  L 566.42 916.52
  A 0.80 0.79 -45.3 0 1 566.42 915.39
  Q 615.81 865.72 625.92 855.17
  Q 637.82 842.76 646.90 833.90
  Q 662.99 818.19 706.71 774.65
  A 0.57 0.57 0.0 0 0 706.77 773.90
  L 696.36 759.87
  A 0.28 0.28 0.0 0 0 695.94 759.84
  L 539.47 916.40
  Q 534.74 897.05 515.99 893.90
  A 0.78 0.78 0.0 0 1 515.34 893.13
  L 515.34 710.79
  A 0.47 0.47 0.0 0 0 514.53 710.46
  L 513.03 711.98
  A 1.56 1.56 0.0 0 1 510.82 711.98
  L 507.30 708.43
  A 0.23 0.23 0.0 0 0 506.90 708.59
  L 506.90 892.74
  A 0.72 0.72 0.0 0 1 506.36 893.44
  C 502.54 894.44 498.46 895.56 495.27 897.50
  Q 484.94 903.76 483.05 916.08
  Z"
/>
<path fill="#426282" d="
  M 539.16 146.36
  Q 542.29 127.97 529.77 116.99
  C 524.18 112.09 516.35 109.03 508.82 109.70
  Q 493.29 111.09 485.63 124.58
  C 483.48 128.37 482.86 132.52 482.72 136.99
  Q 482.56 142.13 483.22 146.36
  L 327.11 302.10
  A 1.38 1.38 0.0 0 1 324.96 301.84
  L 316.69 288.10
  A 0.79 0.79 0.0 0 1 316.76 287.19
  Q 318.61 284.94 319.99 283.50
  Q 325.36 277.91 351.56 252.39
  Q 373.37 231.15 383.01 221.17
  Q 383.66 220.49 457.77 146.50
  A 1.09 1.08 45.2 0 0 457.77 144.97
  L 449.44 136.56
  A 1.15 1.14 -44.8 0 1 449.45 134.94
  L 511.22 73.72
  A 0.69 0.68 -44.7 0 1 512.19 73.72
  L 573.99 135.23
  A 0.51 0.51 0.0 0 1 573.99 135.95
  L 564.14 145.71
  A 0.71 0.70 45.6 0 0 564.14 146.71
  L 706.08 288.00
  A 0.83 0.83 0.0 0 1 706.13 289.12
  Q 700.88 295.40 697.18 302.22
  A 0.59 0.59 0.0 0 1 696.25 302.36
  C 693.14 299.36 688.55 295.76 685.29 292.44
  C 668.31 275.19 652.76 259.97 635.26 242.15
  Q 624.31 230.99 613.27 219.98
  Q 576.35 183.15 539.16 146.36
  Z"
/>
<path fill="#7cb9ea" d="
  M 539.16 146.36
  Q 534.83 165.41 515.69 169.42
  A 0.42 0.42 0.0 0 0 515.36 169.83
  L 515.36 351.34
  A 0.22 0.22 0.0 0 1 514.99 351.49
  L 511.71 348.17
  A 0.96 0.96 0.0 0 0 510.35 348.17
  L 507.26 351.27
  A 0.38 0.37 -21.2 0 1 506.62 350.99
  Q 507.01 343.69 506.97 333.50
  Q 506.89 307.71 506.91 172.75
  Q 506.91 171.35 506.63 169.76
  A 0.70 0.69 89.9 0 0 506.06 169.18
  Q 496.48 167.45 490.08 159.92
  Q 484.53 153.39 483.22 146.36
  Q 482.56 142.13 482.72 136.99
  C 482.86 132.52 483.48 128.37 485.63 124.58
  Q 493.29 111.09 508.82 109.70
  C 516.35 109.03 524.18 112.09 529.77 116.99
  Q 542.29 127.97 539.16 146.36
  Z"
/>
<path fill="#7cb9ea" d="
  M 535.62 370.23
  A 0.32 0.32 0.0 0 1 535.08 370.41
  C 532.35 367.77 527.14 363.53 527.15 360.50
  Q 527.29 318.70 527.36 313.74
  A 4.41 4.39 -21.7 0 1 528.71 310.62
  Q 538.53 301.21 541.87 297.85
  Q 544.10 295.62 544.11 293.03
  Q 544.22 262.30 543.82 228.99
  Q 543.80 228.06 542.52 226.60
  C 540.15 223.91 539.31 221.25 540.16 217.63
  C 542.60 207.35 558.86 212.05 555.68 223.15
  C 555.21 224.79 554.16 225.64 553.27 226.93
  A 3.07 3.04 -27.6 0 0 552.73 228.63
  Q 552.14 261.82 552.54 297.00
  Q 552.58 300.03 550.82 301.80
  Q 546.28 306.37 536.78 315.50
  Q 535.70 316.55 535.70 319.27
  Q 535.74 360.19 535.79 366.75
  Q 535.81 368.83 535.62 370.23
  Z"
/>
<path fill="#7cb9ea" d="
  M 486.99 371.64
  A 0.68 0.68 0.0 0 1 485.82 371.16
  Q 486.02 333.42 486.14 318.75
  C 486.16 317.06 485.49 315.62 484.14 314.33
  Q 477.90 308.31 472.86 303.11
  Q 470.33 300.51 470.37 296.75
  Q 470.77 258.52 470.63 231.17
  A 1.58 1.57 -71.7 0 0 470.00 229.91
  Q 464.99 226.12 466.09 220.74
  C 466.98 216.35 471.70 212.26 476.33 213.32
  C 481.30 214.46 485.52 220.02 483.72 225.14
  C 483.04 227.06 481.71 228.24 480.03 230.16
  A 3.82 3.81 65.7 0 0 479.08 232.68
  Q 479.11 272.27 479.04 295.24
  Q 479.04 297.02 480.62 298.62
  Q 492.79 310.95 492.91 311.08
  C 494.26 312.61 494.61 313.76 494.59 315.87
  Q 494.50 324.65 494.60 361.93
  A 4.87 4.85 67.3 0 1 493.19 365.38
  L 486.99 371.64
  Z
  M 478.90 222.31
  A 3.96 3.96 0.0 0 0 474.94 218.35
  A 3.96 3.96 0.0 0 0 470.98 222.31
  A 3.96 3.96 0.0 0 0 474.94 226.27
  A 3.96 3.96 0.0 0 0 478.90 222.31
  Z"
/>
<circle fill="#1b2b46" cx="474.94" cy="222.31" r="3.96"/>
<path fill="#7cb9ea" d="
  M 458.14 400.42
  A 0.69 0.68 -22.2 0 1 456.97 399.93
  Q 457.09 384.89 457.08 348.25
  Q 457.08 346.35 456.26 345.04
  A 0.29 0.24 -85.3 0 0 456.21 344.97
  L 433.54 322.88
  A 3.46 3.45 22.2 0 1 432.49 320.40
  L 432.49 258.74
  A 1.39 1.29 -57.0 0 0 432.41 258.28
  C 431.86 256.58 430.08 255.28 429.56 253.42
  Q 427.98 247.89 432.42 245.09
  C 438.15 241.47 445.09 247.62 442.34 253.69
  Q 440.65 257.41 440.66 258.99
  Q 440.93 292.90 440.83 315.97
  A 4.20 4.16 -66.9 0 0 441.99 318.89
  Q 453.81 331.23 463.13 340.46
  C 465.65 342.95 465.79 344.35 465.80 348.00
  Q 465.86 369.18 465.93 390.73
  A 4.45 4.41 67.4 0 1 464.66 393.84
  L 458.14 400.42
  Z
  M 434.7271 248.5787
  A 3.10 2.91 -119.0 0 0 433.6849 252.7008
  A 3.10 2.91 -119.0 0 0 437.7329 254.0013
  A 3.10 2.91 -119.0 0 0 438.7751 249.8792
  A 3.10 2.91 -119.0 0 0 434.7271 248.5787
  Z"
/>
<ellipse fill="#1b2b46" cx="0.00" cy="0.00" transform="translate(436.23,251.29) rotate(-119.0)" rx="3.10" ry="2.91"/>
<path fill="#7cb9ea" d="
  M 564.63 400.31
  L 557.96 393.70
  A 3.00 2.98 22.3 0 1 557.07 391.60
  Q 556.98 368.72 556.97 345.99
  Q 556.97 343.16 558.68 341.45
  Q 576.14 324.05 580.94 318.69
  Q 582.35 317.10 582.35 314.51
  Q 582.38 299.42 582.39 299.00
  Q 582.66 288.63 582.62 277.96
  A 4.43 4.31 33.9 0 0 582.27 276.30
  C 581.47 274.49 579.69 273.13 579.20 270.94
  C 577.91 265.23 584.15 258.65 589.85 262.00
  C 595.25 265.17 596.55 270.62 591.57 274.99
  Q 590.49 275.94 590.50 278.50
  Q 590.57 286.49 590.54 319.25
  Q 590.54 320.62 588.49 322.75
  Q 581.76 329.73 566.73 345.24
  C 564.32 347.73 564.82 352.35 564.81 355.25
  Q 564.80 358.79 565.47 399.96
  A 0.49 0.49 0.0 0 1 564.63 400.31
  Z
  M 590.2052 268.6491
  A 3.42 3.12 -6.9 0 0 586.4352 265.9626
  A 3.42 3.12 -6.9 0 0 583.4148 269.4709
  A 3.42 3.12 -6.9 0 0 587.1848 272.1574
  A 3.42 3.12 -6.9 0 0 590.2052 268.6491
  Z"
/>
<ellipse fill="#1b2b46" cx="0.00" cy="0.00" transform="translate(586.81,269.06) rotate(-6.9)" rx="3.42" ry="3.12"/>
<path fill="#7cb9ea" d="
  M 428.68 429.05
  A 0.22 0.21 67.6 0 1 428.31 428.89
  L 428.31 371.25
  A 3.36 3.34 -67.6 0 0 427.33 368.88
  Q 415.93 357.39 397.12 338.87
  Q 395.54 337.31 395.54 335.48
  Q 395.56 317.35 395.59 286.16
  A 2.79 2.78 24.9 0 0 394.93 284.36
  L 392.51 281.46
  A 2.17 2.09 -74.8 0 1 392.10 280.71
  Q 389.85 273.24 395.30 270.12
  Q 398.72 268.17 402.43 269.23
  C 405.41 270.07 408.07 273.37 408.26 276.46
  Q 408.54 281.10 404.88 284.02
  A 2.19 2.18 -18.9 0 0 404.06 285.68
  Q 403.83 293.64 404.03 303.50
  Q 404.22 312.37 403.89 330.49
  C 403.85 332.73 404.54 334.20 406.25 335.91
  Q 432.27 361.98 436.05 365.68
  Q 437.08 366.68 437.03 369.01
  Q 436.82 378.72 436.70 419.78
  A 2.88 2.87 -22.7 0 1 435.87 421.80
  L 428.68 429.05
  Z"
/>
<path fill="#7cb9ea" d="
  M 608.43 442.74
  A 0.23 0.22 -46.0 0 1 608.43 442.43
  L 641.17 409.54
  A 3.97 3.97 0.0 0 1 643.85 408.38
  Q 647.86 408.25 655.98 408.24
  Q 657.68 408.24 659.23 406.73
  Q 680.94 385.63 701.89 364.64
  C 705.39 361.14 712.95 354.76 717.30 349.10
  A 0.90 0.90 0.0 0 0 717.29 348.00
  C 714.75 344.76 711.72 340.60 710.30 336.19
  C 703.46 314.90 713.95 294.09 734.91 286.97
  C 746.25 283.12 760.46 285.68 769.69 293.07
  Q 780.87 302.04 783.83 315.30
  C 787.61 332.19 778.26 350.73 762.06 358.10
  Q 748.88 364.10 733.80 359.21
  C 730.54 358.15 727.29 356.12 724.68 354.50
  A 1.06 1.05 -51.4 0 0 723.39 354.65
  L 661.83 415.66
  A 3.02 3.00 22.4 0 1 659.70 416.54
  L 647.64 416.54
  A 3.62 3.59 -67.3 0 0 645.09 417.60
  L 614.47 448.37
  A 0.27 0.27 0.0 0 1 614.09 448.37
  L 608.43 442.74
  Z
  M 746.18 344.34
  C 749.67 344.34 754.36 342.51 757.27 340.84
  C 764.45 336.75 767.12 328.50 766.39 320.49
  C 765.59 311.77 759.32 305.52 750.78 303.83
  Q 750.02 303.68 746.28 303.67
  Q 742.54 303.66 741.77 303.81
  C 733.22 305.46 726.92 311.68 726.08 320.40
  C 725.32 328.40 727.95 336.66 735.10 340.79
  C 738.01 342.47 742.70 344.33 746.18 344.34
  Z"
/>
<path fill="#7cb9ea" d="
  M 407.46 441.65
  L 407.46 404.49
  A 2.87 2.87 0.0 0 0 406.62 402.46
  L 364.47 359.93
  A 3.59 3.57 65.3 0 0 361.65 358.88
  Q 356.59 359.26 353.03 355.22
  C 347.20 348.60 352.70 338.05 361.59 338.75
  C 368.76 339.31 373.60 346.60 370.60 353.16
  A 1.64 1.64 0.0 0 0 370.94 355.00
  Q 391.94 375.52 409.54 393.47
  Q 410.95 394.92 414.96 398.21
  A 2.90 2.90 0.0 0 1 416.02 400.45
  L 416.02 440.74
  A 3.14 3.13 67.7 0 1 415.09 442.97
  L 405.14 452.83
  A 0.30 0.29 -44.3 0 1 404.73 452.83
  Q 386.22 433.86 373.39 421.12
  C 370.34 418.09 368.64 418.81 364.55 418.45
  C 362.61 418.27 361.65 417.21 360.30 415.87
  Q 337.68 393.58 313.89 369.03
  C 309.22 364.21 304.44 360.01 299.27 355.38
  A 0.76 0.74 46.9 0 0 298.31 355.34
  Q 292.84 359.48 286.01 360.94
  Q 264.81 365.44 250.17 350.87
  C 237.45 338.21 234.72 320.25 243.42 304.61
  C 251.96 289.26 270.82 282.03 287.86 287.63
  C 300.57 291.81 310.09 301.80 313.56 314.53
  C 316.57 325.54 313.61 338.97 305.67 348.09
  A 0.75 0.75 0.0 0 0 305.70 349.12
  Q 334.39 377.77 358.44 402.07
  Q 361.20 404.86 364.99 408.50
  C 367.95 411.34 370.19 410.42 373.94 410.80
  C 375.59 410.97 376.73 412.43 377.96 413.65
  Q 403.58 439.11 406.48 442.05
  A 0.57 0.57 0.0 0 0 407.46 441.65
  Z
  M 297.46 323.61
  A 20.59 20.59 0.0 0 0 276.87 303.02
  A 20.59 20.59 0.0 0 0 256.28 323.61
  A 20.59 20.59 0.0 0 0 276.87 344.20
  A 20.59 20.59 0.0 0 0 297.46 323.61
  Z
  M 365.76 348.72
  A 4.79 4.79 0.0 0 0 360.97 343.93
  A 4.79 4.79 0.0 0 0 356.18 348.72
  A 4.79 4.79 0.0 0 0 360.97 353.51
  A 4.79 4.79 0.0 0 0 365.76 348.72
  Z"
/>
<path fill="#7cb9ea" d="
  M 596.92 418.26
  Q 597.29 417.96 599.49 415.74
  Q 635.79 379.08 657.36 358.11
  C 658.69 356.82 659.65 355.29 660.34 352.60
  Q 661.55 347.85 666.64 347.68
  C 675.34 347.40 677.48 359.42 668.61 361.40
  Q 665.19 362.16 664.14 362.91
  A 1.50 0.57 -27.2 0 0 664.01 363.03
  L 596.89 430.11
  A 0.85 0.85 0.0 0 1 595.69 430.11
  L 588.09 422.54
  A 1.89 1.87 -67.9 0 1 587.53 421.20
  L 587.53 384.34
  A 2.59 2.58 -22.4 0 1 588.30 382.50
  Q 601.15 369.98 620.15 351.14
  C 622.00 349.30 622.65 348.16 622.63 345.39
  Q 622.52 330.22 623.00 311.16
  A 2.26 2.25 -73.4 0 0 621.94 309.19
  L 620.04 308.00
  A 4.28 4.26 1.3 0 1 618.56 306.46
  C 614.19 298.66 619.57 289.44 628.99 291.17
  Q 634.41 292.16 636.31 297.27
  C 638.21 302.39 635.93 305.78 632.32 309.10
  A 2.66 2.61 -20.8 0 0 631.46 310.97
  Q 630.87 328.05 630.97 348.75
  C 630.99 351.09 630.44 352.40 628.73 354.11
  Q 622.70 360.15 597.18 385.60
  A 3.28 3.26 -22.7 0 0 596.22 387.91
  L 596.22 417.93
  A 0.43 0.43 0.0 0 0 596.92 418.26
  Z
  M 631.72 300.75
  A 4.71 4.71 0.0 0 0 627.01 296.04
  A 4.71 4.71 0.0 0 0 622.30 300.75
  A 4.71 4.71 0.0 0 0 627.01 305.46
  A 4.71 4.71 0.0 0 0 631.72 300.75
  Z"
/>
<circle fill="#1b2b46" cx="627.01" cy="300.75" r="4.71"/>
<circle fill="#ffffff" cx="276.87" cy="323.61" r="20.59"/>
<path fill="#ffffff" d="
  M 746.28 303.67
  Q 750.02 303.68 750.78 303.83
  C 759.32 305.52 765.59 311.77 766.39 320.49
  C 767.12 328.50 764.45 336.75 757.27 340.84
  C 754.36 342.51 749.67 344.34 746.18 344.34
  C 742.70 344.33 738.01 342.47 735.10 340.79
  C 727.95 336.66 725.32 328.40 726.08 320.40
  C 726.92 311.68 733.22 305.46 741.77 303.81
  Q 742.54 303.66 746.28 303.67
  Z"
/>
<circle fill="#1b2b46" cx="360.97" cy="348.72" r="4.79"/>
<path fill="#426282" d="
  M 256.25 689.52
  L 240.78 697.70
  A 1.79 1.78 53.9 0 1 238.65 697.36
  Q 220.12 677.88 197.68 655.31
  Q 134.22 591.48 73.26 531.16
  A 0.79 0.79 0.0 0 1 73.23 530.07
  Q 77.35 525.62 81.52 521.52
  Q 86.77 516.35 141.02 462.52
  C 149.07 454.54 160.76 442.16 170.31 432.81
  Q 205.93 397.98 234.25 369.50
  Q 237.47 366.26 239.55 363.49
  A 1.29 1.29 0.0 0 1 241.40 363.27
  Q 248.03 368.73 254.42 372.20
  A 0.56 0.55 -56.5 0 1 254.58 373.03
  Q 247.23 382.17 239.06 390.81
  Q 212.24 419.19 183.36 447.61
  Q 175.90 454.95 99.41 530.40
  A 0.44 0.43 -44.5 0 0 99.40 531.02
  L 256.28 689.30
  A 0.14 0.14 0.0 0 1 256.25 689.52
  Z"
/>
<path fill="#426282" d="
  M 766.83 373.58
  A 0.67 0.67 0.0 0 1 767.02 372.60
  L 781.33 363.99
  A 0.43 0.41 -38.5 0 1 781.84 364.04
  C 783.87 365.96 786.59 369.11 788.88 371.33
  Q 812.31 394.12 826.67 408.81
  Q 840.51 422.99 850.63 432.88
  C 860.15 442.20 870.59 453.39 881.71 464.18
  Q 919.88 501.22 949.46 530.38
  A 0.57 0.55 45.0 0 1 949.47 531.17
  L 781.11 698.04
  A 1.01 1.00 -51.1 0 1 779.87 698.18
  L 766.70 689.98
  A 0.64 0.64 0.0 0 1 766.59 688.98
  L 923.53 531.32
  A 0.99 0.99 0.0 0 0 923.52 529.91
  Q 874.88 482.82 834.94 442.08
  Q 815.11 421.85 804.67 411.54
  Q 779.00 386.17 770.82 377.81
  Q 767.41 374.34 766.83 373.58
  Z"
/>
<path fill="#426282" d="
  M 352.26 530.78
  L 510.79 371.52
  A 0.66 0.66 0.0 0 1 511.73 371.52
  L 671.33 530.39
  A 0.66 0.66 0.0 0 1 671.33 531.33
  L 512.11 689.12
  A 0.66 0.66 0.0 0 1 511.19 689.12
  L 352.26 531.72
  A 0.66 0.66 0.0 0 1 352.26 530.78
  Z
  M 643.3072 530.8612
  A 0.63 0.63 0.0 0 0 643.3072 529.9703
  L 512.6197 399.2828
  A 0.63 0.63 0.0 0 0 511.7288 399.2828
  L 380.1928 530.8188
  A 0.63 0.63 0.0 0 0 380.1928 531.7097
  L 510.8803 662.3972
  A 0.63 0.63 0.0 0 0 511.7712 662.3972
  L 643.3072 530.8612
  Z"
/>
<path fill="#7cb9ea" d="
  M 624.08 458.63
  A 0.99 0.99 0.0 0 1 624.78 456.93
  Q 658.26 456.91 671.28 456.95
  Q 673.42 456.96 674.67 456.38
  A 2.19 2.19 0.0 0 0 675.37 455.88
  Q 695.62 434.35 715.76 415.52
  C 719.65 411.88 716.31 409.81 717.80 405.88
  Q 720.09 399.84 725.67 399.09
  C 738.42 397.38 741.87 414.31 730.42 418.43
  Q 729.38 418.80 724.63 419.13
  Q 723.01 419.23 720.42 421.92
  C 713.24 429.36 702.19 440.74 692.76 449.97
  Q 685.47 457.10 679.54 463.91
  A 3.44 3.41 20.3 0 1 676.95 465.09
  L 632.98 465.09
  A 5.79 5.77 67.3 0 1 628.92 463.42
  L 624.08 458.63
  Z
  M 724.6857 404.8748
  A 4.78 4.62 -123.3 0 0 723.4486 411.4065
  A 4.78 4.62 -123.3 0 0 729.9343 412.8652
  A 4.78 4.62 -123.3 0 0 731.1714 406.3335
  A 4.78 4.62 -123.3 0 0 724.6857 404.8748
  Z"
/>
<path fill="#1b2b46" d="
  M 511.7712 662.3972
  A 0.63 0.63 0.0 0 1 510.8803 662.3972
  L 380.1928 531.7097
  A 0.63 0.63 0.0 0 1 380.1928 530.8188
  L 511.7288 399.2828
  A 0.63 0.63 0.0 0 1 512.6197 399.2828
  L 643.3072 529.9703
  A 0.63 0.63 0.0 0 1 643.3072 530.8612
  L 511.7712 662.3972
  Z
  M 509.23 436.43
  Q 501.21 444.39 493.87 451.87
  Q 484.87 461.03 450.77 493.64
  L 445.19 499.06
  Q 433.43 520.27 422.55 540.56
  Q 422.20 541.20 422.56 541.75
  L 510.91 631.08
  A 1.08 1.08 0.0 0 0 512.46 631.07
  C 540.94 601.63 569.72 572.99 597.45 543.70
  Q 598.41 542.68 598.98 541.45
  Q 599.71 540.96 599.29 540.21
  Q 587.30 518.90 578.16 501.31
  L 571.60 493.77
  L 513.97 437.78
  Q 513.21 436.59 511.64 435.46
  A 0.99 0.97 -36.1 0 0 510.74 435.33
  Q 509.64 435.71 509.23 436.43
  Z"
/>
<ellipse fill="#1b2b46" cx="0.00" cy="0.00" transform="translate(727.31,408.87) rotate(-123.3)" rx="4.78" ry="4.62"/>
<path fill="#7cb9ea" d="
  M 390.05 466.96
  A 0.53 0.53 0.0 0 1 390.42 467.86
  L 384.26 473.96
  A 4.15 4.14 21.9 0 1 381.44 475.16
  Q 373.04 475.32 364.78 475.07
  C 363.46 475.02 361.82 473.07 360.82 472.07
  Q 336.10 447.12 329.30 439.94
  Q 326.86 437.37 323.28 437.37
  Q 301.70 437.39 294.76 437.45
  C 292.18 437.47 290.42 439.71 288.73 440.24
  C 275.76 444.27 270.97 427.33 282.37 423.59
  C 286.75 422.15 290.38 424.06 292.92 427.67
  A 3.12 3.12 0.0 0 0 295.48 429.01
  L 328.21 429.01
  A 3.89 3.89 0.0 0 1 330.96 430.15
  L 367.23 466.75
  A 0.72 0.70 66.8 0 0 367.73 466.96
  L 390.05 466.96
  Z
  M 289.00 432.18
  A 3.90 3.90 0.0 0 0 285.10 428.28
  A 3.90 3.90 0.0 0 0 281.20 432.18
  A 3.90 3.90 0.0 0 0 285.10 436.08
  A 3.90 3.90 0.0 0 0 289.00 432.18
  Z"
/>
<circle fill="#1b2b46" cx="285.10" cy="432.18" r="3.90"/>
<path fill="#7cb9ea" d="
  M 513.97 437.78
  Q 513.79 439.58 514.31 441.56
  A 1.90 1.82 -53.4 0 1 514.37 442.03
  L 514.21 493.09
  A 0.51 0.50 0.0 0 0 514.72 493.59
  L 571.60 493.77
  L 578.16 501.31
  Q 577.27 501.34 576.86 503.04
  Q 576.42 504.86 576.29 505.27
  Q 567.91 529.63 560.62 551.67
  A 0.70 0.70 0.0 0 0 561.49 552.56
  Q 577.88 547.51 596.23 541.68
  Q 596.90 541.47 598.98 541.45
  Q 598.41 542.68 597.45 543.70
  C 569.72 572.99 540.94 601.63 512.46 631.07
  A 1.08 1.08 0.0 0 1 510.91 631.08
  L 422.56 541.75
  Q 423.97 541.28 425.13 541.62
  Q 444.07 547.22 462.82 552.74
  A 0.43 0.43 0.0 0 0 463.34 552.19
  L 445.19 499.06
  L 450.77 493.64
  L 508.40 493.60
  A 0.47 0.47 0.0 0 0 508.87 493.14
  L 509.23 436.43
  Q 509.64 435.71 510.74 435.33
  A 0.99 0.97 -36.1 0 1 511.64 435.46
  Q 513.21 436.59 513.97 437.78
  Z
  M 451.51 498.71
  A 0.33 0.33 0.0 0 0 451.20 499.14
  L 467.73 548.67
  A 0.33 0.33 0.0 0 0 468.31 548.76
  L 505.18 499.24
  A 0.33 0.33 0.0 0 0 504.91 498.71
  L 451.51 498.71
  Z
  M 572.61 499.17
  A 0.35 0.35 0.0 0 0 572.28 498.71
  L 518.15 498.71
  A 0.35 0.35 0.0 0 0 517.86 499.27
  L 555.27 549.70
  A 0.35 0.35 0.0 0 0 555.88 549.60
  L 572.61 499.17
  Z
  M 471.73 553.50
  A 0.34 0.34 0.0 0 0 472.01 554.04
  L 550.98 553.90
  A 0.34 0.34 0.0 0 0 551.25 553.36
  L 511.67 500.10
  A 0.34 0.34 0.0 0 0 511.12 500.10
  L 471.73 553.50
  Z
  M 511.49 628.47
  A 0.32 0.32 0.0 0 0 512.04 628.48
  L 554.67 560.03
  A 0.32 0.32 0.0 0 0 554.39 559.54
  L 470.58 559.54
  A 0.32 0.32 0.0 0 0 470.30 560.02
  L 511.49 628.47
  Z"
/>
<path fill="#ffffff" d="
  M 509.23 436.43
  L 508.87 493.14
  A 0.47 0.47 0.0 0 1 508.40 493.60
  L 450.77 493.64
  Q 484.87 461.03 493.87 451.87
  Q 501.21 444.39 509.23 436.43
  Z"
/>
<path fill="#ffffff" d="
  M 513.97 437.78
  L 571.60 493.77
  L 514.72 493.59
  A 0.51 0.50 0.0 0 1 514.21 493.09
  L 514.37 442.03
  A 1.90 1.82 -53.4 0 0 514.31 441.56
  Q 513.79 439.58 513.97 437.78
  Z"
/>
<path fill="#7cb9ea" d="
  M 649.50 484.23
  A 0.49 0.49 0.0 0 1 649.90 483.40
  Q 650.44 483.46 693.75 483.50
  Q 698.04 483.50 700.85 482.88
  A 2.57 2.49 15.6 0 0 702.10 482.20
  Q 713.83 470.61 740.12 443.12
  Q 741.61 441.56 744.50 441.61
  Q 751.40 441.72 762.24 442.06
  A 1.51 1.51 0.0 0 0 763.25 441.72
  C 766.63 438.97 769.89 436.43 774.08 439.97
  C 780.83 445.69 773.97 456.58 765.79 451.49
  Q 763.98 450.36 763.48 450.11
  A 3.28 3.17 58.5 0 0 762.20 449.78
  Q 755.67 449.49 748.51 449.71
  C 746.49 449.77 745.47 450.18 743.92 451.76
  Q 716.54 479.72 705.54 490.29
  Q 704.43 491.36 701.68 491.40
  Q 680.96 491.64 658.73 491.69
  A 4.36 4.36 0.0 0 1 655.60 490.39
  L 649.50 484.23
  Z"
/>
<path fill="#7cb9ea" d="
  M 361.33 497.02
  A 0.02 0.02 0.0 0 1 361.35 497.05
  L 352.97 505.46
  A 0.39 0.37 20.1 0 1 352.69 505.58
  Q 337.70 505.49 331.27 505.61
  Q 329.07 505.65 327.68 504.32
  Q 321.88 498.77 312.06 488.94
  Q 310.78 487.66 308.50 487.68
  Q 287.38 487.89 265.80 487.55
  A 2.58 2.56 -22.9 0 1 264.06 486.85
  Q 250.98 474.57 240.44 462.60
  A 3.15 3.14 66.5 0 0 237.79 461.55
  Q 233.83 461.93 231.61 460.62
  C 223.31 455.74 229.91 441.69 239.40 446.28
  Q 243.90 448.46 244.24 454.26
  A 2.90 2.90 0.0 0 0 245.03 456.09
  Q 254.47 465.99 265.29 476.82
  C 267.20 478.74 268.18 479.17 271.17 479.15
  Q 293.29 478.99 311.75 479.08
  A 4.87 4.86 67.8 0 1 315.19 480.53
  Q 321.99 487.44 330.32 495.42
  Q 331.84 496.88 334.50 496.90
  Q 348.52 497.00 361.33 497.02
  Z"
/>
<path fill="#7cb9ea" d="
  M 677.06 511.01
  A 0.65 0.65 0.0 0 1 677.52 509.89
  Q 713.64 509.85 741.75 510.02
  Q 744.18 510.04 746.12 509.16
  A 2.51 2.29 -76.3 0 0 746.76 508.73
  Q 760.02 496.11 770.27 485.52
  C 772.34 483.37 777.80 483.40 780.00 483.45
  Q 789.20 483.70 798.50 483.80
  C 800.79 483.82 801.32 483.58 802.93 481.93
  Q 808.17 476.56 814.77 479.68
  C 823.60 483.86 821.19 496.90 811.79 498.13
  Q 805.30 498.98 801.14 492.81
  A 2.29 2.27 72.9 0 0 799.25 491.80
  Q 784.42 491.81 779.75 491.80
  C 777.03 491.79 776.00 491.83 773.93 493.92
  Q 763.47 504.47 750.72 516.72
  A 4.93 4.93 0.0 0 1 747.31 518.09
  L 686.09 518.09
  A 4.57 4.54 -22.5 0 1 682.88 516.77
  L 677.06 511.01
  Z
  M 814.84 488.29
  A 4.46 4.46 0.0 0 0 810.38 483.83
  A 4.46 4.46 0.0 0 0 805.92 488.29
  A 4.46 4.46 0.0 0 0 810.38 492.75
  A 4.46 4.46 0.0 0 0 814.84 488.29
  Z"
/>
<circle fill="#1b2b46" cx="810.38" cy="488.29" r="4.46"/>
<path fill="#ffffff" d="
  M 451.51 498.71
  L 504.91 498.71
  A 0.33 0.33 0.0 0 1 505.18 499.24
  L 468.31 548.76
  A 0.33 0.33 0.0 0 1 467.73 548.67
  L 451.20 499.14
  A 0.33 0.33 0.0 0 1 451.51 498.71
  Z"
/>
<path fill="#ffffff" d="
  M 572.61 499.17
  L 555.88 549.60
  A 0.35 0.35 0.0 0 1 555.27 549.70
  L 517.86 499.27
  A 0.35 0.35 0.0 0 1 518.15 498.71
  L 572.28 498.71
  A 0.35 0.35 0.0 0 1 572.61 499.17
  Z"
/>
<path fill="#ffffff" d="
  M 445.19 499.06
  L 463.34 552.19
  A 0.43 0.43 0.0 0 1 462.82 552.74
  Q 444.07 547.22 425.13 541.62
  Q 423.97 541.28 422.56 541.75
  Q 422.20 541.20 422.55 540.56
  Q 433.43 520.27 445.19 499.06
  Z"
/>
<path fill="#ffffff" d="
  M 471.73 553.50
  L 511.12 500.10
  A 0.34 0.34 0.0 0 1 511.67 500.10
  L 551.25 553.36
  A 0.34 0.34 0.0 0 1 550.98 553.90
  L 472.01 554.04
  A 0.34 0.34 0.0 0 1 471.73 553.50
  Z"
/>
<path fill="#ffffff" d="
  M 578.16 501.31
  Q 587.30 518.90 599.29 540.21
  Q 599.71 540.96 598.98 541.45
  Q 596.90 541.47 596.23 541.68
  Q 577.88 547.51 561.49 552.56
  A 0.70 0.70 0.0 0 1 560.62 551.67
  Q 567.91 529.63 576.29 505.27
  Q 576.42 504.86 576.86 503.04
  Q 577.27 501.34 578.16 501.31
  Z"
/>
<path fill="#7cb9ea" d="
  M 327.92 530.85
  Q 327.92 531.20 328.10 531.38
  Q 329.64 532.96 331.10 534.36
  A 0.28 0.28 0.0 0 1 330.90 534.84
  L 191.83 534.84
  A 2.10 2.08 -71.6 0 0 190.15 535.69
  C 189.34 536.78 188.01 538.64 186.85 539.37
  Q 178.35 544.72 171.75 537.99
  Q 169.00 535.19 169.01 530.62
  Q 169.01 526.05 171.77 523.26
  Q 178.39 516.55 186.87 521.92
  C 188.03 522.65 189.36 524.52 190.16 525.61
  A 2.10 2.08 71.7 0 0 191.84 526.46
  L 330.91 526.86
  A 0.28 0.28 0.0 0 1 331.11 527.34
  Q 329.65 528.74 328.10 530.31
  Q 327.92 530.49 327.92 530.85
  Z
  M 184.74 530.43
  A 4.80 4.80 0.0 0 0 179.94 525.63
  A 4.80 4.80 0.0 0 0 175.14 530.43
  A 4.80 4.80 0.0 0 0 179.94 535.23
  A 4.80 4.80 0.0 0 0 184.74 530.43
  Z"
/>
<circle fill="#1b2b46" cx="179.94" cy="530.43" r="4.80"/>
<path fill="#7cb9ea" d="
  M 861.87 530.83
  C 861.87 533.48 860.33 534.89 857.72 534.89
  Q 718.16 535.01 694.75 534.98
  A 0.41 0.41 0.0 0 1 694.45 534.28
  Q 695.85 532.85 697.17 531.47
  Q 697.30 531.34 697.30 530.89
  Q 697.30 530.44 697.17 530.31
  Q 695.85 528.93 694.45 527.50
  A 0.41 0.41 0.0 0 1 694.75 526.80
  Q 718.16 526.75 857.72 526.78
  C 860.33 526.78 861.87 528.19 861.87 530.83
  Z"
/>
<path fill="#7cb9ea" d="
  M 672.26 555.40
  A 0.12 0.11 20.9 0 1 672.17 555.21
  L 679.70 547.24
  A 0.54 0.53 -68.0 0 1 680.09 547.07
  Q 730.16 547.26 749.26 547.17
  Q 751.35 547.16 752.49 548.26
  Q 758.75 554.32 773.93 569.08
  C 775.25 570.36 776.56 570.83 778.51 570.86
  Q 788.13 571.00 798.82 570.53
  A 1.32 1.30 -74.5 0 0 799.86 569.93
  C 800.73 568.56 801.85 566.81 803.25 565.94
  Q 810.90 561.14 817.58 567.32
  Q 822.31 571.69 820.58 577.58
  C 817.77 587.12 805.56 588.04 800.16 580.11
  A 2.24 2.24 0.0 0 0 798.27 579.13
  Q 785.73 579.29 774.26 579.20
  Q 772.27 579.18 770.75 577.76
  Q 759.45 567.15 748.91 556.46
  A 3.58 3.57 67.6 0 0 746.37 555.40
  L 672.26 555.40
  Z
  M 814.69 574.77
  A 4.81 4.81 0.0 0 0 809.88 569.96
  A 4.81 4.81 0.0 0 0 805.07 574.77
  A 4.81 4.81 0.0 0 0 809.88 579.58
  A 4.81 4.81 0.0 0 0 814.69 574.77
  Z"
/>
<path fill="#7cb9ea" d="
  M 354.86 559.52
  Q 306.93 559.57 257.74 559.41
  Q 253.94 559.40 252.20 561.18
  Q 240.50 573.17 229.76 583.51
  C 227.86 585.34 228.08 589.42 226.39 591.31
  C 222.61 595.52 215.23 593.61 214.44 587.83
  Q 213.84 583.41 217.02 581.11
  C 218.77 579.85 221.84 580.01 224.03 577.80
  Q 236.52 565.22 248.10 553.59
  Q 249.97 551.71 251.91 551.08
  A 1.91 1.74 33.8 0 1 252.45 551.00
  L 346.08 551.27
  A 0.76 0.75 66.4 0 1 346.60 551.48
  L 354.89 559.45
  A 0.04 0.04 0.0 0 1 354.86 559.52
  Z"
/>
<path fill="#bdd9f4" d="
  M 511.49 628.47
  L 470.30 560.02
  A 0.32 0.32 0.0 0 1 470.58 559.54
  L 554.39 559.54
  A 0.32 0.32 0.0 0 1 554.67 560.03
  L 512.04 628.48
  A 0.32 0.32 0.0 0 1 511.49 628.47
  Z"
/>
<circle fill="#1b2b46" cx="809.88" cy="574.77" r="4.81"/>
<path fill="#7cb9ea" d="
  M 647.98 581.05
  A 0.74 0.74 0.0 0 1 647.46 579.79
  L 653.16 574.04
  A 3.87 3.84 22.1 0 1 655.91 572.89
  L 708.47 572.89
  A 3.46 3.42 -21.7 0 1 710.95 573.94
  Q 726.01 589.51 747.81 610.94
  C 750.06 613.15 750.77 613.85 753.66 613.93
  C 756.94 614.03 763.77 614.57 766.06 612.58
  C 769.58 609.51 774.24 609.11 777.31 612.51
  C 783.65 619.56 775.23 630.50 766.62 623.80
  C 764.76 622.35 763.84 622.17 761.50 622.09
  Q 755.43 621.89 748.59 621.90
  A 3.55 3.52 -22.4 0 1 746.10 620.88
  Q 730.43 605.46 706.46 581.55
  Q 705.66 580.74 702.99 580.83
  Q 686.56 581.36 647.98 581.05
  Z"
/>
<path fill="#7cb9ea" d="
  M 383.39 588.39
  Q 339.80 588.02 302.00 588.07
  Q 297.80 588.08 296.13 588.55
  A 2.91 2.87 -74.7 0 0 294.89 589.27
  L 270.62 612.78
  A 1.39 1.35 70.1 0 0 270.21 613.69
  Q 270.20 613.82 270.28 616.49
  C 270.43 621.54 267.32 625.21 262.32 626.34
  C 255.28 627.93 247.79 620.85 250.67 613.68
  Q 254.10 605.14 263.25 607.62
  A 2.02 2.02 0.0 0 0 265.21 607.10
  L 291.74 580.44
  A 1.77 1.74 22.2 0 1 292.98 579.93
  L 374.78 579.93
  A 3.04 3.04 0.0 0 1 376.93 580.82
  L 383.73 587.58
  A 0.47 0.47 0.0 0 1 383.39 588.39
  Z
  M 264.15 616.86
  A 4.30 4.30 0.0 0 0 259.85 612.56
  A 4.30 4.30 0.0 0 0 255.55 616.86
  A 4.30 4.30 0.0 0 0 259.85 621.16
  A 4.30 4.30 0.0 0 0 264.15 616.86
  Z"
/>
<path fill="#7cb9ea" d="
  M 390.27 595.25
  A 0.87 0.87 0.0 0 1 391.51 595.25
  L 396.46 600.24
  A 0.97 0.96 -44.8 0 1 396.45 601.60
  L 379.12 618.78
  A 6.30 6.25 20.4 0 1 375.17 620.57
  Q 368.73 621.04 350.26 620.72
  C 348.53 620.69 347.37 621.15 346.12 622.52
  Q 336.72 632.87 333.59 635.84
  Q 322.56 646.34 315.20 653.88
  A 2.38 2.38 0.0 0 0 314.52 655.73
  Q 314.89 661.04 311.20 662.63
  C 301.75 666.70 296.61 653.00 306.14 649.66
  Q 307.60 649.14 308.92 648.37
  A 5.32 5.09 6.1 0 0 309.97 647.56
  Q 327.54 629.93 343.42 613.46
  Q 344.70 612.13 347.38 612.13
  Q 362.24 612.14 372.10 612.21
  A 3.25 3.23 22.5 0 0 374.43 611.25
  L 390.27 595.25
  Z"
/>
<path fill="#7cb9ea" d="
  M 625.76 601.12
  L 630.82 596.04
  A 0.75 0.75 0.0 0 1 631.88 596.04
  L 648.55 612.55
  A 1.62 1.60 -22.3 0 0 649.69 613.02
  L 680.35 613.02
  A 3.45 3.45 0.0 0 1 682.79 614.03
  L 709.08 640.19
  A 2.77 2.75 66.6 0 0 711.10 641.00
  C 715.12 640.90 718.07 641.46 720.83 644.20
  C 723.95 647.31 724.00 653.12 721.40 656.34
  C 716.82 662.02 708.33 660.40 705.31 653.61
  C 704.39 651.56 704.78 649.59 704.27 647.80
  A 3.23 3.21 14.1 0 0 703.37 646.31
  Q 692.90 636.36 680.20 622.88
  C 678.98 621.58 677.23 621.09 675.28 621.08
  Q 658.22 620.96 646.12 621.13
  A 2.71 2.70 -23.1 0 1 644.17 620.35
  L 625.76 602.12
  A 0.71 0.71 0.0 0 1 625.76 601.12
  Z
  M 714.0133 646.3613
  A 4.23 4.05 -88.6 0 0 709.8612 650.4910
  A 4.23 4.05 -88.6 0 0 713.8067 654.8187
  A 4.23 4.05 -88.6 0 0 717.9588 650.6890
  A 4.23 4.05 -88.6 0 0 714.0133 646.3613
  Z"
/>
<circle fill="#1b2b46" cx="259.85" cy="616.86" r="4.30"/>
<path fill="#7cb9ea" d="
  M 408.06 626.69
  A 0.35 0.35 0.0 0 0 407.46 626.44
  L 369.03 665.24
  A 4.76 4.74 22.3 0 1 365.66 666.64
  L 362.35 666.64
  A 4.68 4.68 0.0 0 0 359.05 668.00
  L 310.76 715.86
  A 0.85 0.84 54.1 0 0 310.61 716.84
  C 316.09 727.52 317.80 737.92 313.58 749.32
  Q 309.95 759.14 302.03 765.45
  Q 284.95 779.03 264.41 771.57
  Q 259.54 769.80 253.88 765.18
  C 239.08 753.09 236.22 731.64 246.64 715.99
  C 259.66 696.43 286.15 693.32 303.86 709.13
  A 1.11 1.11 0.0 0 0 305.38 709.09
  L 355.72 659.19
  A 2.59 2.56 22.5 0 1 357.53 658.45
  L 361.77 658.45
  A 3.80 3.76 22.4 0 0 364.43 657.36
  L 408.97 613.21
  A 0.56 0.56 0.0 0 1 409.75 613.21
  L 415.58 618.98
  A 2.97 2.97 0.0 0 1 416.45 621.08
  L 416.45 669.47
  A 5.58 5.56 67.6 0 1 414.82 673.41
  Q 395.40 692.75 374.94 713.69
  Q 373.30 715.37 373.21 717.00
  Q 372.78 724.62 373.21 734.36
  A 3.75 3.73 25.6 0 0 373.94 736.42
  L 376.76 740.23
  A 0.51 0.43 -77.3 0 1 376.86 740.42
  Q 379.04 747.56 373.72 750.59
  C 367.14 754.34 358.78 748.71 361.05 741.12
  C 361.55 739.42 363.05 737.87 363.91 736.60
  A 4.56 4.56 0.0 0 0 364.70 733.97
  Q 364.54 722.42 364.79 713.83
  Q 364.86 711.31 366.70 709.46
  Q 387.04 689.13 406.84 669.62
  Q 408.06 668.42 408.05 665.74
  Q 407.96 634.38 408.06 626.69
  Z
  M 297.9157 735.0319
  A 17.81 17.81 0.0 0 0 280.5780 716.7618
  L 277.1392 716.6718
  A 17.81 17.81 0.0 0 0 258.8690 734.0094
  L 258.7643 738.0081
  A 17.81 17.81 0.0 0 0 276.1020 756.2782
  L 279.5408 756.3682
  A 17.81 17.81 0.0 0 0 297.8110 739.0306
  L 297.9157 735.0319
  Z"
/>
<path fill="#7cb9ea" d="
  M 604.90 621.74
  L 609.72 616.89
  A 0.83 0.83 0.0 0 1 610.89 616.89
  L 648.47 654.29
  A 4.71 4.69 69.0 0 0 651.53 655.66
  C 654.55 655.82 661.84 655.15 664.14 657.42
  Q 703.37 696.13 715.38 708.27
  A 1.66 1.66 0.0 0 0 717.65 708.36
  Q 732.72 695.34 752.55 700.22
  Q 763.76 702.97 771.73 711.53
  C 791.01 732.23 779.74 768.14 751.47 773.37
  C 735.89 776.26 721.03 770.01 712.14 756.92
  C 704.28 745.33 704.23 729.19 710.99 716.83
  A 0.72 0.71 -53.6 0 0 710.87 715.99
  L 660.11 665.46
  A 5.22 5.19 -22.5 0 0 656.44 663.95
  L 647.30 663.95
  A 4.01 3.98 67.2 0 1 644.49 662.79
  L 604.90 623.38
  A 1.16 1.16 0.0 0 1 604.90 621.74
  Z
  M 763.1974 735.1032
  A 17.88 17.88 0.0 0 0 745.8557 716.7006
  L 742.3573 716.5968
  A 17.88 17.88 0.0 0 0 723.9547 733.9385
  L 723.8426 737.7168
  A 17.88 17.88 0.0 0 0 741.1843 756.1194
  L 744.6827 756.2232
  A 17.88 17.88 0.0 0 0 763.0853 738.8815
  L 763.1974 735.1032
  Z"
/>
<path fill="#7cb9ea" d="
  M 596.37 630.83
  A 0.37 0.36 2.6 0 1 596.71 631.19
  Q 596.67 651.72 596.61 679.26
  Q 596.60 681.89 597.73 683.00
  Q 616.66 701.74 632.18 717.32
  Q 634.10 719.25 634.11 721.21
  Q 634.22 744.03 633.94 759.48
  A 3.07 3.02 -62.7 0 0 634.51 761.32
  Q 635.11 762.17 636.32 763.18
  C 641.80 767.77 638.95 775.20 633.19 777.69
  C 629.16 779.44 624.89 777.73 622.54 774.23
  C 619.52 769.75 621.43 766.03 624.69 762.68
  A 4.37 4.36 67.2 0 0 625.93 759.63
  L 625.93 724.61
  A 4.15 4.12 22.9 0 0 624.74 721.71
  L 588.98 685.63
  A 3.43 3.41 -67.6 0 1 587.98 683.21
  L 587.98 640.85
  A 3.87 3.85 67.1 0 1 589.06 638.17
  L 596.09 630.83
  A 0.05 0.03 13.3 0 1 596.12 630.82
  Q 596.33 630.83 596.37 630.83
  Z
  M 633.85 769.81
  A 3.69 3.69 0.0 0 0 630.16 766.12
  A 3.69 3.69 0.0 0 0 626.47 769.81
  A 3.69 3.69 0.0 0 0 630.16 773.50
  A 3.69 3.69 0.0 0 0 633.85 769.81
  Z"
/>
<path fill="#7cb9ea" d="
  M 428.51 632.08
  A 0.29 0.29 0.0 0 1 429.01 631.88
  L 436.11 639.04
  A 3.08 3.06 22.8 0 1 437.00 641.20
  Q 437.06 679.78 437.10 703.74
  C 437.10 705.35 435.13 706.88 434.18 707.89
  Q 423.21 719.44 411.17 730.47
  A 4.81 4.79 -21.3 0 0 409.61 734.01
  L 409.61 775.70
  A 4.25 4.24 -63.2 0 0 410.43 778.21
  Q 414.25 783.44 410.95 787.69
  C 405.30 794.94 394.57 788.08 398.77 780.69
  Q 401.17 776.48 401.20 776.28
  A 8.58 8.58 0.0 0 0 401.32 774.85
  L 401.34 730.25
  A 4.36 4.34 66.5 0 1 402.50 727.29
  Q 415.42 713.25 427.45 702.26
  A 3.25 3.22 69.1 0 0 428.51 699.86
  L 428.51 632.08
  Z
  M 408.01 783.82
  A 2.90 2.90 0.0 0 0 405.11 780.92
  A 2.90 2.90 0.0 0 0 402.21 783.82
  A 2.90 2.90 0.0 0 0 405.11 786.72
  A 2.90 2.90 0.0 0 0 408.01 783.82
  Z"
/>
<ellipse fill="#1b2b46" cx="0.00" cy="0.00" transform="translate(713.91,650.59) rotate(-88.6)" rx="4.23" ry="4.05"/>
<path fill="#7cb9ea" d="
  M 458.18 661.27
  A 0.41 0.41 0.0 0 1 458.88 660.98
  L 465.60 667.76
  A 3.29 3.24 -67.6 0 1 466.54 670.06
  L 466.54 723.02
  A 4.67 4.66 68.5 0 1 465.07 726.42
  Q 456.54 734.40 446.07 744.80
  Q 444.89 745.98 444.94 748.51
  Q 445.39 773.41 444.92 798.76
  Q 444.85 802.42 447.06 805.03
  Q 449.46 807.87 448.64 811.96
  C 447.16 819.35 437.78 820.16 433.78 814.67
  C 431.72 811.85 431.98 806.84 434.75 804.21
  Q 436.10 802.93 436.52 801.57
  A 1.96 1.92 -37.3 0 0 436.60 801.02
  L 436.50 744.01
  A 4.45 4.44 -22.6 0 1 437.79 740.88
  Q 448.42 730.26 456.49 722.49
  Q 458.05 720.98 458.09 718.75
  Q 458.38 704.86 458.18 661.27
  Z"
/>
<path fill="#7cb9ea" d="
  M 563.73 661.63
  A 0.70 0.70 0.0 0 1 564.92 662.12
  L 564.92 706.39
  A 4.04 4.01 -68.6 0 0 566.19 709.33
  Q 578.88 721.20 589.13 731.38
  Q 591.14 733.37 591.15 736.65
  Q 591.25 762.82 591.16 800.51
  A 2.21 2.17 -69.5 0 0 591.89 802.15
  C 600.26 809.58 590.21 822.08 581.29 815.05
  C 577.88 812.37 577.66 807.57 580.11 804.34
  Q 580.94 803.25 582.29 801.84
  A 2.70 2.68 66.8 0 0 583.04 799.95
  Q 582.88 774.41 582.90 741.00
  Q 582.90 738.87 582.34 737.30
  A 2.20 2.17 -77.7 0 0 581.80 736.45
  L 556.99 712.27
  A 2.96 2.94 22.3 0 1 556.10 710.16
  L 556.10 671.18
  A 4.53 4.48 -22.9 0 1 557.40 668.02
  L 563.73 661.63
  Z"
/>
<path fill="#7cb9ea" d="
  M 486.09 689.04
  A 0.42 0.42 0.0 0 1 486.81 688.74
  L 493.54 695.52
  A 2.58 2.56 23.1 0 1 494.27 697.31
  Q 494.22 734.99 494.53 745.51
  Q 494.61 748.18 493.39 749.39
  Q 485.48 757.23 483.67 758.83
  C 481.97 760.32 481.70 762.18 481.74 764.26
  Q 482.15 788.85 481.72 823.25
  Q 481.70 825.59 481.93 827.48
  A 3.48 3.45 -67.7 0 0 482.62 829.15
  Q 484.90 832.16 485.08 832.81
  Q 486.60 838.23 483.52 841.36
  C 475.82 849.18 463.06 837.69 472.34 829.36
  A 2.43 2.42 69.1 0 0 473.14 827.56
  L 473.14 759.09
  A 3.69 3.67 -21.8 0 1 474.29 756.42
  Q 480.49 750.52 484.91 745.92
  C 485.93 744.87 486.23 743.02 486.22 741.49
  Q 486.04 716.04 486.09 689.04
  Z"
/>
<path fill="#7cb9ea" d="
  M 535.24 690.08
  Q 535.27 690.12 535.33 690.16
  A 0.24 0.09 -84.5 0 1 535.38 690.34
  Q 535.33 703.32 535.33 730.39
  Q 535.33 732.39 536.76 733.75
  Q 544.30 740.97 553.82 750.68
  A 3.70 3.69 22.8 0 1 554.88 753.27
  L 554.88 828.90
  A 1.96 1.96 0.0 0 0 555.50 830.33
  C 562.18 836.56 558.27 846.32 549.18 845.09
  C 542.20 844.14 539.31 834.64 545.67 830.62
  A 2.04 2.03 -16.2 0 0 546.62 828.90
  L 546.62 756.77
  A 4.40 4.40 0.0 0 0 545.25 753.58
  Q 536.53 745.32 528.00 737.29
  Q 526.94 736.28 526.92 733.50
  Q 526.83 716.55 526.91 699.56
  A 3.92 3.90 -22.8 0 1 528.02 696.86
  L 534.68 690.04
  A 0.37 0.37 0.0 0 1 535.24 690.08
  Z"
/>
<path fill="#7cb9ea" d="
  M 539.47 916.40
  Q 541.06 926.61 537.74 934.71
  Q 531.69 949.47 514.45 951.86
  Q 504.42 953.24 496.36 947.88
  Q 484.57 940.03 482.74 926.00
  Q 482.40 923.40 483.05 916.08
  Q 484.94 903.76 495.27 897.50
  C 498.46 895.56 502.54 894.44 506.36 893.44
  A 0.72 0.72 0.0 0 0 506.90 892.74
  L 506.90 708.59
  A 0.23 0.23 0.0 0 1 507.30 708.43
  L 510.82 711.98
  A 1.56 1.56 0.0 0 0 513.03 711.98
  L 514.53 710.46
  A 0.47 0.47 0.0 0 1 515.34 710.79
  L 515.34 893.13
  A 0.78 0.78 0.0 0 0 515.99 893.90
  Q 534.74 897.05 539.47 916.40
  Z"
/>
<rect fill="#ffffff" x="-19.53" y="-19.81" transform="translate(278.34,736.52) rotate(1.5)" width="39.06" height="39.62" rx="17.81"/>
<rect fill="#ffffff" x="-19.63" y="-19.77" transform="translate(743.52,736.41) rotate(1.7)" width="39.26" height="39.54" rx="17.88"/>
<path fill="#426282" d="
  M 483.05 916.08
  Q 482.40 923.40 482.74 926.00
  Q 484.57 940.03 496.36 947.88
  Q 504.42 953.24 514.45 951.86
  Q 531.69 949.47 537.74 934.71
  Q 541.06 926.61 539.47 916.40
  L 695.94 759.84
  A 0.28 0.28 0.0 0 1 696.36 759.87
  L 706.77 773.90
  A 0.57 0.57 0.0 0 1 706.71 774.65
  Q 662.99 818.19 646.90 833.90
  Q 637.82 842.76 625.92 855.17
  Q 615.81 865.72 566.42 915.39
  A 0.80 0.79 -45.3 0 0 566.42 916.52
  L 574.27 924.30
  A 0.57 0.57 0.0 0 1 574.27 925.11
  L 512.08 986.75
  A 0.85 0.84 44.8 0 1 510.89 986.75
  L 448.49 924.95
  A 0.81 0.81 0.0 0 1 448.49 923.81
  L 456.25 916.13
  A 0.83 0.82 -45.2 0 0 456.25 914.96
  L 315.70 775.05
  A 0.98 0.97 -48.5 0 1 315.63 773.75
  Q 320.90 767.10 324.49 759.56
  A 0.77 0.76 -54.6 0 1 325.72 759.35
  L 483.05 916.08
  Z"
/>
<circle fill="#1b2b46" cx="630.16" cy="769.81" r="3.69"/>
<circle fill="#1b2b46" cx="405.11" cy="783.82" r="2.90"/>
</svg>
